<?xml version="1.0" encoding="utf-8"?>
<!-- Generator: Adobe Illustrator 28.0.0, SVG Export Plug-In . SVG Version: 6.00 Build 0)  -->
<svg version="1.1" id="Laag_1" xmlns="http://www.w3.org/2000/svg" xmlns:xlink="http://www.w3.org/1999/xlink" x="0px" y="0px"
	 viewBox="0 0 909 517" style="enable-background:new 0 0 909 517;" xml:space="preserve">
<style type="text/css">
	.Slagschaduw{fill:none;}
	.Buitenste_x0020_gloed_x0020_5_x0020_pt{fill:none;}
	.Blauw_x0020_neon{fill:none;stroke:#8AACDA;stroke-width:7;stroke-linecap:round;stroke-linejoin:round;}
	.Hooglicht_x002C__x0020_chroom{fill:url(#SVGID_1_);stroke:#FFFFFF;stroke-width:0.3629;stroke-miterlimit:1;}
	.Jive_AS{fill:#FFDD00;}
	.Alyssa_AS{fill:#A6D0E4;}
	.st0{fill:#063B59;}
	.st1{fill:#808080;}
	.st2{fill:#FFFFFF;}
	.st3{fill:#0071BC;stroke:#0071BC;stroke-width:2.8346;stroke-miterlimit:10;}
</style>
<linearGradient id="SVGID_1_" gradientUnits="userSpaceOnUse" x1="-239" y1="-128" x2="-239" y2="-129">
	<stop  offset="0" style="stop-color:#656565"/>
	<stop  offset="0.618" style="stop-color:#1B1B1B"/>
	<stop  offset="0.6292" style="stop-color:#545454"/>
	<stop  offset="0.9831" style="stop-color:#3E3E3E"/>
</linearGradient>
<path class="st0" d="M142.1,164.3v-59.6c0-11.8-6.2-20.2-15.4-20.2c-9.6,0-16.6,9-16.6,21v58.8h-26v-59.2c0-15.8-4.2-19.8-15.6-19.8
	c-10.4,0-15.8,6.4-15.8,19.2v59.8h-26V65.9h24.4v14.4c6.6-13,15.8-17,28.8-17c13.4,0,19.8,4.2,27.4,15.6
	c5.4-10.8,14.2-15.6,26.6-15.6c19.8,0,33.6,14.4,33.6,32.8v68.2H142.1z"/>
<path class="st0" d="M175.3,115.1c0-31.2,19.4-51.8,50.6-51.8c30.8,0,50,20.4,50,51.8c0,31.2-19.4,51.8-50,51.8
	C194.1,166.9,175.3,145.7,175.3,115.1z M249.7,115.1c0-20-8-29.8-23.8-29.8s-23.8,9.8-23.8,29.8s8,30,23.8,30
	S249.7,135.1,249.7,115.1z"/>
<g>
	<path class="st1" d="M304.3,66.3v15.6h0.4C311.4,70,322,64,336.6,64c6.5,0,11.8,0.9,16.1,2.7c4.3,1.8,7.8,4.2,10.4,7.4
		c2.7,3.2,4.5,6.9,5.6,11.3c1.1,4.4,1.6,9.2,1.6,14.5v64.6h-16.1V98c0-6.1-1.8-10.9-5.3-14.4c-3.5-3.5-8.4-5.3-14.6-5.3
		c-4.9,0-9.2,0.8-12.8,2.3c-3.6,1.5-6.6,3.7-9,6.5c-2.4,2.8-4.2,6-5.4,9.8c-1.2,3.7-1.8,7.8-1.8,12.3v55.5h-16.1V66.3H304.3z"/>
	<path class="st1" d="M409.9,66.3v15.6h0.4C417,70,427.7,64,442.2,64c6.5,0,11.8,0.9,16.1,2.7c4.3,1.8,7.8,4.2,10.5,7.4
		c2.7,3.2,4.5,6.9,5.6,11.3c1.1,4.4,1.6,9.2,1.6,14.5v64.6h-16.2V98c0-6.1-1.8-10.9-5.3-14.4c-3.5-3.5-8.4-5.3-14.6-5.3
		c-4.9,0-9.2,0.8-12.8,2.3c-3.6,1.5-6.6,3.7-9,6.5c-2.4,2.8-4.2,6-5.4,9.8c-1.2,3.7-1.8,7.8-1.8,12.3v55.5h-16.1V66.3H409.9z"/>
	<path class="st1" d="M501.3,42.6v-7.7c0-3.3,2.7-6,6-6h4.1c3.3,0,6,2.7,6,6v7.7c0,3.3-2.7,6-6,6h-4.1
		C504,48.6,501.3,45.9,501.3,42.6z"/>
	<rect x="501.3" y="66.3" class="st1" width="16.1" height="98.2"/>
	<path class="st1" d="M601.3,83.4c-4.1-3.4-9.5-5.1-16.3-5.1c-5.8,0-10.7,1.1-14.6,3.2c-3.9,2.2-7.1,5-9.4,8.5
		c-2.3,3.5-4,7.6-5,12.3c-1,4.6-1.5,9.4-1.5,14.3c0,4.6,0.5,9,1.6,13.3c1.1,4.3,2.8,8.1,5,11.5c2.3,3.4,5.3,6,8.9,8.1
		c3.7,2,8,3,13.1,3c8,0,14.2-2.1,18.7-6.3c4.5-4.2,7.2-10.1,8.3-17.7h16.5c-1.8,12.2-6.3,21.5-13.6,28.1c-7.3,6.6-17.2,9.9-29.7,9.9
		c-7.5,0-14.1-1.2-19.9-3.6c-5.8-2.4-10.6-5.8-14.4-10.3c-3.9-4.4-6.8-9.7-8.7-15.9c-2-6.1-2.9-12.9-2.9-20.2c0-7.3,1-14.2,2.9-20.6
		c1.9-6.4,4.8-12,8.6-16.7c3.9-4.8,8.7-8.5,14.5-11.2c5.8-2.7,12.6-4.1,20.3-4.1c5.6,0,10.8,0.7,15.7,2c4.9,1.3,9.2,3.4,12.9,6.2
		c3.7,2.8,6.8,6.3,9.2,10.5c2.4,4.2,3.9,9.3,4.6,15.1h-16.7C608,91.6,605.3,86.8,601.3,83.4z"/>
	<path class="st1" d="M731.6,164.1c-2.8,1.6-6.6,2.5-11.6,2.5c-4.2,0-7.5-1.2-10-3.5c-2.5-2.3-3.7-6.2-3.7-11.5
		c-4.4,5.3-9.6,9.2-15.5,11.5c-5.9,2.3-12.3,3.5-19.1,3.5c-4.4,0-8.6-0.5-12.6-1.5c-4-1-7.4-2.6-10.4-4.8c-2.9-2.2-5.2-5-6.9-8.5
		c-1.7-3.5-2.6-7.7-2.6-12.6c0-5.6,1-10.1,2.9-13.7c1.9-3.5,4.4-6.4,7.5-8.6c3.1-2.2,6.6-3.9,10.6-5s8.1-2.1,12.3-2.9
		c4.4-0.9,8.6-1.5,12.6-2c4-0.4,7.5-1.1,10.5-1.9c3-0.8,5.4-2,7.2-3.6c1.8-1.6,2.7-3.9,2.7-6.9c0-3.5-0.7-6.4-2-8.5
		c-1.3-2.2-3-3.8-5.1-4.9c-2.1-1.1-4.4-1.9-7-2.3c-2.6-0.4-5.2-0.6-7.7-0.6c-6.8,0-12.5,1.3-17.1,3.9c-4.6,2.6-7,7.5-7.4,14.7h-16.2
		c0.3-6.1,1.5-11.2,3.8-15.4c2.3-4.2,5.3-7.6,9.1-10.2c3.8-2.6,8.1-4.5,13-5.6c4.9-1.1,10.1-1.7,15.7-1.7c4.4,0,8.8,0.3,13.2,1
		c4.4,0.6,8.3,1.9,11.9,3.9c3.5,2,6.4,4.7,8.5,8.2c2.2,3.5,3.2,8.2,3.2,13.8v50.4c0,3.8,0.2,6.6,0.7,8.3c0.4,1.8,1.9,2.7,4.5,2.7
		c1.4,0,3-0.3,4.9-0.8V164.1z M705.4,113.8c-2,1.5-4.7,2.6-8,3.3c-3.3,0.7-6.7,1.3-10.4,1.7c-3.6,0.4-7.3,0.9-10.9,1.5
		c-3.7,0.6-7,1.5-9.9,2.7c-2.9,1.3-5.3,3.1-7.1,5.4c-1.8,2.3-2.8,5.5-2.8,9.5c0,2.6,0.5,4.9,1.6,6.7c1.1,1.8,2.5,3.3,4.2,4.4
		s3.7,2,6,2.5c2.3,0.5,4.7,0.8,7.2,0.8c5.3,0,9.9-0.7,13.7-2.2c3.8-1.4,6.9-3.3,9.3-5.5c2.4-2.2,4.2-4.6,5.3-7.2s1.7-5,1.7-7.3
		V113.8z"/>
	<path class="st1" d="M797.7,142.6c1.5,2.5,3.5,4.4,6,5.9c2.5,1.5,5.3,2.5,8.4,3.1c3.1,0.6,6.3,1,9.6,1c2.5,0,5.2-0.2,8-0.6
		c2.8-0.4,5.3-1.1,7.7-2.1c2.3-1,4.3-2.5,5.8-4.5c1.5-2,2.3-4.5,2.3-7.5c0-4.2-1.6-7.3-4.8-9.5c-3.2-2.2-7.1-3.9-11.9-5.2
		s-9.9-2.5-15.5-3.6c-5.6-1.1-10.7-2.6-15.5-4.6c-4.8-2-8.7-4.7-11.9-8.3c-3.2-3.5-4.8-8.5-4.8-14.8c0-4.9,1.1-9.2,3.3-12.7
		c2.2-3.5,5.1-6.4,8.6-8.6c3.5-2.2,7.4-3.9,11.8-4.9c4.4-1.1,8.7-1.6,13-1.6c5.6,0,10.7,0.5,15.4,1.4c4.7,1,8.8,2.6,12.4,4.9
		c3.6,2.3,6.5,5.5,8.6,9.5c2.2,4,3.4,9,3.8,14.9H842c-0.3-3.2-1.1-5.8-2.5-7.9c-1.4-2.1-3.2-3.8-5.3-5c-2.2-1.3-4.5-2.2-7.1-2.8
		c-2.6-0.6-5.2-0.9-7.9-0.9c-2.4,0-4.8,0.2-7.3,0.6c-2.5,0.4-4.7,1-6.7,2c-2,1-3.7,2.2-4.9,3.8c-1.3,1.6-1.9,3.6-1.9,6.2
		c0,2.8,1,5.1,2.9,6.9c2,1.8,4.5,3.4,7.5,4.6c3,1.2,6.5,2.2,10.3,3c3.8,0.8,7.6,1.7,11.4,2.6c4.1,0.9,8,2,11.9,3.2
		c3.9,1.3,7.3,2.9,10.3,5c3,2.1,5.4,4.7,7.2,7.9c1.8,3.2,2.8,7.1,2.8,11.8c0,6-1.2,10.9-3.7,14.8c-2.5,3.9-5.7,7.1-9.7,9.5
		c-4,2.4-8.5,4.1-13.5,5c-5,1-10,1.4-14.9,1.4c-5.4,0-10.6-0.6-15.6-1.7c-4.9-1.1-9.3-3-13.1-5.6c-3.8-2.6-6.8-6-9.1-10.3
		c-2.3-4.2-3.5-9.4-3.8-15.5h16.2C795.4,137.1,796.2,140.1,797.7,142.6z"/>
</g>
<path class="st0" d="M89.3,326.3v-61c0-14.8-5-19.4-16.8-19.4c-13,0-20.2,10.8-20.2,24v56.4h-26V191.9h26v48.8
	c3.8-8.8,15.8-15.4,29-15.4c20.2,0,34.2,11.8,34.2,31.4v69.6H89.3z"/>
<path class="st0" d="M150.7,283.9c0.8,14.8,9.2,24.4,22,24.4c8.4,0,15.8-4.2,17.6-11h26.8c-6,20.2-22.2,31.6-43.2,31.6
	c-32.8,0-49.2-18-49.2-53.6c0-30.4,17.4-50,47.6-50c30.2,0,46.2,19.6,46.2,58.6H150.7z M191.7,267.5c-0.4-14.6-10-21.6-20.2-21.6
	c-10.4,0-19,8-20,21.6H191.7z"/>
<g>
	<path class="st1" d="M255.4,190.8v135.7h-16.1V190.8H255.4z"/>
	<path class="st1" d="M297.2,228.3v13.3h0.4c2.7-5.4,6.8-9.4,12.5-11.9c5.7-2.5,12-3.7,18.8-3.7c7.6,0,14.2,1.4,19.9,4.2
		c5.6,2.8,10.3,6.6,14.1,11.3c3.7,4.8,6.6,10.2,8.5,16.4c1.9,6.2,2.9,12.8,2.9,19.8c0,7-0.9,13.6-2.8,19.8
		c-1.8,6.2-4.6,11.6-8.4,16.2c-3.7,4.6-8.4,8.3-14.1,10.9c-5.6,2.7-12.2,4-19.7,4c-2.4,0-5.1-0.3-8.1-0.8c-3-0.5-5.9-1.3-8.8-2.5
		c-2.9-1.1-5.7-2.7-8.3-4.7c-2.6-2-4.8-4.4-6.6-7.3h-0.4v50.5H281V228.3H297.2z M355.2,263.1c-1.2-4.4-3-8.3-5.5-11.7
		c-2.5-3.4-5.6-6.1-9.5-8.2c-3.9-2-8.4-3-13.6-3c-5.4,0-10.1,1.1-13.9,3.2c-3.8,2.2-6.9,5-9.3,8.5c-2.4,3.5-4.2,7.4-5.2,11.9
		c-1.1,4.4-1.6,8.9-1.6,13.5c0,4.8,0.6,9.5,1.7,14c1.1,4.5,2.9,8.5,5.4,11.9c2.5,3.4,5.7,6.2,9.6,8.3c3.9,2.1,8.7,3.1,14.2,3.1
		c5.6,0,10.2-1.1,14-3.2c3.7-2.2,6.7-5,9-8.5c2.3-3.5,3.9-7.6,4.9-12.2c1-4.6,1.5-9.2,1.5-14.1C357,272,356.4,267.5,355.2,263.1z"/>
	<path class="st1" d="M462.7,320.2c-7.3,5.6-16.6,8.4-27.7,8.4c-7.9,0-14.7-1.3-20.4-3.8c-5.8-2.5-10.6-6.1-14.5-10.6
		c-3.9-4.6-6.9-10-8.8-16.3c-2-6.3-3.1-13.2-3.3-20.7c0-7.5,1.1-14.3,3.4-20.5c2.3-6.2,5.5-11.6,9.6-16.2c4.1-4.6,9-8.1,14.6-10.6
		c5.6-2.5,11.8-3.8,18.5-3.8c8.7,0,16,1.8,21.8,5.4c5.8,3.6,10.4,8.2,13.9,13.8c3.5,5.6,5.9,11.7,7.2,18.2
		c1.3,6.6,1.9,12.9,1.6,18.8h-73.5c-0.1,4.3,0.4,8.4,1.5,12.3c1.1,3.9,3,7.3,5.5,10.3c2.5,3,5.8,5.4,9.7,7.1
		c3.9,1.8,8.5,2.7,13.9,2.7c6.8,0,12.4-1.6,16.8-4.8c4.4-3.2,7.2-8,8.6-14.4h16C474.7,306.4,470,314.7,462.7,320.2z M458.8,257.2
		c-1.5-3.4-3.4-6.4-5.9-8.8c-2.5-2.5-5.4-4.4-8.7-5.9c-3.4-1.5-7.1-2.2-11.1-2.2c-4.2,0-8,0.7-11.3,2.2c-3.4,1.5-6.2,3.5-8.6,6
		c-2.4,2.5-4.3,5.5-5.7,8.8c-1.4,3.4-2.2,6.9-2.5,10.7h56.4C461.1,264.2,460.2,260.6,458.8,257.2z"/>
	<path class="st1" d="M510.3,228.3v15.6h0.4c6.7-11.9,17.4-17.9,31.9-17.9c6.5,0,11.8,0.9,16.1,2.7c4.3,1.8,7.8,4.2,10.5,7.4
		c2.7,3.2,4.5,6.9,5.6,11.3c1.1,4.4,1.6,9.2,1.6,14.5v64.6h-16.2V260c0-6.1-1.8-10.9-5.3-14.4c-3.5-3.5-8.4-5.3-14.6-5.3
		c-4.9,0-9.2,0.8-12.8,2.3c-3.6,1.5-6.6,3.7-9,6.5c-2.4,2.8-4.2,6-5.4,9.8c-1.2,3.7-1.8,7.8-1.8,12.3v55.5h-16.1v-98.2H510.3z"/>
	<path class="st1" d="M672.4,326.5v-13.3H672c-2.7,5.4-6.8,9.4-12.5,11.8c-5.7,2.4-12,3.6-18.8,3.6c-7.6,0-14.2-1.4-19.9-4.2
		c-5.6-2.8-10.3-6.5-14.1-11.2c-3.7-4.7-6.6-10.1-8.5-16.3c-1.9-6.2-2.9-12.8-2.9-19.8c0-7,0.9-13.6,2.8-19.8
		c1.8-6.2,4.6-11.6,8.4-16.2c3.7-4.6,8.4-8.3,14.1-11c5.6-2.7,12.2-4.1,19.7-4.1c2.5,0,5.3,0.3,8.2,0.8c2.9,0.5,5.8,1.4,8.7,2.6
		c2.9,1.2,5.7,2.8,8.3,4.8c2.6,2,4.8,4.4,6.6,7.3h0.4v-50.5h16.2v135.7H672.4z M614.4,291.6c1.2,4.4,3,8.3,5.5,11.7s5.6,6.1,9.5,8.2
		c3.9,2,8.4,3,13.6,3c5.4,0,10.1-1.1,13.9-3.2c3.8-2.2,6.9-5,9.3-8.5c2.4-3.5,4.1-7.4,5.2-11.9c1.1-4.4,1.6-8.9,1.6-13.5
		c0-4.8-0.6-9.5-1.7-14c-1.1-4.5-2.9-8.5-5.4-11.9c-2.5-3.4-5.7-6.2-9.6-8.3c-3.9-2.1-8.7-3.1-14.2-3.1c-5.4,0-10.1,1.1-13.9,3.2
		c-3.8,2.2-6.8,5-9.1,8.5c-2.3,3.5-3.9,7.6-4.9,12.2c-1,4.6-1.5,9.2-1.5,14.1C612.6,282.8,613.2,287.3,614.4,291.6z"/>
	<path class="st1" d="M783,320.2c-7.3,5.6-16.6,8.4-27.7,8.4c-7.9,0-14.7-1.3-20.4-3.8c-5.8-2.5-10.6-6.1-14.5-10.6
		c-3.9-4.6-6.9-10-8.8-16.3c-2-6.3-3.1-13.2-3.3-20.7c0-7.5,1.1-14.3,3.4-20.5c2.3-6.2,5.5-11.6,9.6-16.2c4.1-4.6,9-8.1,14.6-10.6
		c5.6-2.5,11.8-3.8,18.5-3.8c8.7,0,16,1.8,21.8,5.4c5.8,3.6,10.4,8.2,13.9,13.8c3.5,5.6,5.9,11.7,7.2,18.2
		c1.3,6.6,1.9,12.9,1.6,18.8h-73.5c-0.1,4.3,0.4,8.4,1.5,12.3c1.1,3.9,3,7.3,5.5,10.3c2.5,3,5.8,5.4,9.7,7.1
		c3.9,1.8,8.5,2.7,13.9,2.7c6.8,0,12.4-1.6,16.8-4.8c4.4-3.2,7.2-8,8.6-14.4h16C795.1,306.4,790.3,314.7,783,320.2z M779.1,257.2
		c-1.5-3.4-3.4-6.4-5.9-8.8c-2.5-2.5-5.4-4.4-8.7-5.9c-3.4-1.5-7.1-2.2-11.1-2.2c-4.2,0-8,0.7-11.3,2.2c-3.4,1.5-6.2,3.5-8.6,6
		c-2.4,2.5-4.3,5.5-5.7,8.8c-1.4,3.4-2.2,6.9-2.5,10.7h56.4C781.4,264.2,780.5,260.6,779.1,257.2z"/>
</g>
<path class="st0" d="M88.5,487.3v-61c0-14.8-5-19.4-16.8-19.4c-13,0-20.2,10.8-20.2,24v56.4h-26V352.9h26v48.8
	c3.8-8.8,15.8-15.4,29-15.4c20.2,0,34.2,11.8,34.2,31.4v69.6H88.5z"/>
<path class="st0" d="M187.7,487.3c-0.8-2.4-1.4-5.8-1.6-8.8c-6.2,6.8-16.6,11.4-29.8,11.4c-22.4,0-32.8-11-32.8-27
	c0-28.4,19-31.6,45.2-35.2c13-1.8,16.6-4.4,16.6-11.2c0-6.4-6.4-10.2-16.6-10.2c-11.8,0-16.6,5.8-17.8,14.6h-24.2
	c0.4-20.4,11.6-34.6,43.2-34.6c31.2,0,42,14,42,38.8v62.2H187.7z M185.9,439.1c-2.6,2.6-7.2,4-16.8,5.8c-14.8,2.8-19.6,7-19.6,15.4
	c0,7.4,4.4,11,12.6,11c13.4,0,23.4-9.8,23.6-21.4L185.9,439.1z"/>
<g>
	<path class="st1" d="M249.6,390.3v15.6h0.4c6.7-11.9,17.4-17.9,31.9-17.9c6.5,0,11.8,0.9,16.1,2.7c4.3,1.8,7.8,4.2,10.4,7.4
		c2.7,3.2,4.5,6.9,5.6,11.3c1.1,4.4,1.6,9.2,1.6,14.5v64.6h-16.1V422c0-6.1-1.8-10.9-5.3-14.4c-3.5-3.5-8.4-5.3-14.6-5.3
		c-4.9,0-9.2,0.8-12.8,2.3c-3.6,1.5-6.6,3.7-9,6.5c-2.4,2.8-4.2,6-5.4,9.8c-1.2,3.7-1.8,7.8-1.8,12.3v55.5h-16.1v-98.2H249.6z"/>
	<path class="st1" d="M411.7,488.5v-13.3h-0.4c-2.7,5.4-6.8,9.4-12.5,11.8c-5.7,2.4-12,3.6-18.8,3.6c-7.6,0-14.2-1.4-19.9-4.2
		c-5.6-2.8-10.3-6.5-14.1-11.2c-3.7-4.7-6.6-10.1-8.5-16.3c-1.9-6.2-2.9-12.8-2.9-19.8c0-7,0.9-13.6,2.8-19.8
		c1.8-6.2,4.6-11.6,8.4-16.2c3.7-4.6,8.4-8.3,14.1-11c5.6-2.7,12.2-4.1,19.7-4.1c2.5,0,5.3,0.3,8.2,0.8c2.9,0.5,5.8,1.4,8.7,2.6
		c2.9,1.2,5.7,2.8,8.3,4.8c2.6,2,4.8,4.4,6.6,7.3h0.4v-50.5h16.2v135.7H411.7z M353.6,453.6c1.2,4.4,3,8.3,5.5,11.7
		c2.5,3.4,5.6,6.1,9.5,8.2c3.9,2,8.4,3,13.6,3c5.4,0,10.1-1.1,13.9-3.2c3.8-2.2,6.9-5,9.3-8.5c2.4-3.5,4.1-7.4,5.2-11.9
		c1.1-4.4,1.6-8.9,1.6-13.5c0-4.8-0.6-9.5-1.7-14c-1.1-4.5-2.9-8.5-5.4-11.9c-2.5-3.4-5.7-6.2-9.6-8.3c-3.9-2.1-8.7-3.1-14.2-3.1
		c-5.4,0-10.1,1.1-13.9,3.2c-3.8,2.2-6.8,5-9.1,8.5c-2.3,3.5-3.9,7.6-4.9,12.2c-1,4.6-1.5,9.2-1.5,14.1
		C351.8,444.8,352.4,449.3,353.6,453.6z"/>
</g>
<g>
	<path class="st2" d="M760.5,30.5c0,0-18,22-18,23s-3,10-3,10l5,11l6,4l10-1l7-6l3-8l-1-10l-4.3-18.7l-2.7-6.3L760.5,30.5z"/>
	<g>
		<path class="st3" d="M751.4,79.4c8.8,1.8,17.5-3.9,19.2-12.8c1.7-8.4-7.1-38.7-7.5-40l-0.7-2.3l-1.5,1.8c-0.8,1-20.7,25.6-22.4,34
			C736.8,69,742.5,77.7,751.4,79.4z M761.4,29.7c2,7.3,8.1,30,6.7,36.5c-1.5,7.5-8.8,12.3-16.3,10.8s-12.3-8.8-10.8-16.3
			C742.3,54.2,756.7,35.7,761.4,29.7z"/>
		<path class="st3" d="M763.2,63.4l-2.4-0.5c-0.8,3.9-4.6,6.5-8.6,5.7l-0.5,2.4C756.9,72.1,762.1,68.6,763.2,63.4z"/>
	</g>
</g>
</svg>
