<?xml version="1.0" encoding="utf-8"?>
<!-- Generator: Adobe Illustrator 28.0.0, SVG Export Plug-In . SVG Version: 6.00 Build 0)  -->
<svg version="1.1" id="Laag_1" xmlns="http://www.w3.org/2000/svg" xmlns:xlink="http://www.w3.org/1999/xlink" x="0px" y="0px"
	 viewBox="0 0 134.7 75.5" style="enable-background:new 0 0 134.7 75.5;" xml:space="preserve">
<style type="text/css">
	.Slagschaduw{fill:none;}
	.Buitenste_x0020_gloed_x0020_5_x0020_pt{fill:none;}
	.Blauw_x0020_neon{fill:none;stroke:#8AACDA;stroke-width:7;stroke-linecap:round;stroke-linejoin:round;}
	.Hooglicht_x002C__x0020_chroom{fill:url(#SVGID_1_);stroke:#FFFFFF;stroke-width:0.3629;stroke-miterlimit:1;}
	.Jive_AS{fill:#FFDD00;}
	.Alyssa_AS{fill:#A6D0E4;}
	.st0{fill:#FFFFFF;}
	.st1{opacity:0.6;}
</style>
<linearGradient id="SVGID_1_" gradientUnits="userSpaceOnUse" x1="-10.6637" y1="-37.7547" x2="-10.6637" y2="-38.7547">
	<stop  offset="0" style="stop-color:#656565"/>
	<stop  offset="0.618" style="stop-color:#1B1B1B"/>
	<stop  offset="0.6292" style="stop-color:#545454"/>
	<stop  offset="0.9831" style="stop-color:#3E3E3E"/>
</linearGradient>
<g>
	<path class="st0" d="M18.8,23v-9.6c0-1.9-1-3.2-2.5-3.2c-1.5,0-2.7,1.4-2.7,3.4V23H9.4v-9.5c0-2.5-0.7-3.2-2.5-3.2
		c-1.7,0-2.5,1-2.5,3.1V23H0.2V7.2h3.9v2.3c1.1-2.1,2.5-2.7,4.6-2.7c2.2,0,3.2,0.7,4.4,2.5c0.9-1.7,2.3-2.5,4.3-2.5
		c3.2,0,5.4,2.3,5.4,5.3v11H18.8z"/>
	<path class="st0" d="M24.1,15.1c0-5,3.1-8.3,8.1-8.3c5,0,8,3.3,8,8.3c0,5-3.1,8.3-8,8.3C27.1,23.4,24.1,20,24.1,15.1z M36.1,15.1
		c0-3.2-1.3-4.8-3.8-4.8s-3.8,1.6-3.8,4.8s1.3,4.8,3.8,4.8S36.1,18.3,36.1,15.1z"/>
	<g class="st1">
		<path class="st0" d="M44.9,7.2v2.5h0.1c1.1-1.9,2.8-2.9,5.1-2.9c1,0,1.9,0.1,2.6,0.4c0.7,0.3,1.3,0.7,1.7,1.2
			c0.4,0.5,0.7,1.1,0.9,1.8c0.2,0.7,0.3,1.5,0.3,2.3V23h-2.6V12.3c0-1-0.3-1.8-0.9-2.3c-0.6-0.6-1.4-0.9-2.4-0.9
			c-0.8,0-1.5,0.1-2.1,0.4c-0.6,0.2-1.1,0.6-1.5,1c-0.4,0.4-0.7,1-0.9,1.6c-0.2,0.6-0.3,1.3-0.3,2V23h-2.6V7.2H44.9z"/>
		<path class="st0" d="M61.9,7.2v2.5h0.1c1.1-1.9,2.8-2.9,5.1-2.9c1,0,1.9,0.1,2.6,0.4c0.7,0.3,1.3,0.7,1.7,1.2
			c0.4,0.5,0.7,1.1,0.9,1.8c0.2,0.7,0.3,1.5,0.3,2.3V23h-2.6V12.3c0-1-0.3-1.8-0.9-2.3c-0.6-0.6-1.4-0.9-2.4-0.9
			c-0.8,0-1.5,0.1-2.1,0.4c-0.6,0.2-1.1,0.6-1.5,1c-0.4,0.4-0.7,1-0.9,1.6c-0.2,0.6-0.3,1.3-0.3,2V23h-2.6V7.2H61.9z"/>
		<path class="st0" d="M76.6,3.4V2.2c0-0.5,0.4-1,1-1h0.7c0.5,0,1,0.4,1,1v1.2c0,0.5-0.4,1-1,1h-0.7C77,4.4,76.6,3.9,76.6,3.4z"/>
		<rect x="76.6" y="7.2" class="st0" width="2.6" height="15.8"/>
		<path class="st0" d="M92.6,10C92,9.4,91.1,9.1,90,9.1c-0.9,0-1.7,0.2-2.4,0.5C87,10,86.5,10.5,86.1,11c-0.4,0.6-0.6,1.2-0.8,2
			c-0.2,0.7-0.2,1.5-0.2,2.3c0,0.7,0.1,1.4,0.3,2.1c0.2,0.7,0.4,1.3,0.8,1.8c0.4,0.5,0.8,1,1.4,1.3c0.6,0.3,1.3,0.5,2.1,0.5
			c1.3,0,2.3-0.3,3-1c0.7-0.7,1.2-1.6,1.3-2.8h2.7c-0.3,2-1,3.5-2.2,4.5c-1.2,1.1-2.8,1.6-4.8,1.6c-1.2,0-2.3-0.2-3.2-0.6
			c-0.9-0.4-1.7-0.9-2.3-1.7c-0.6-0.7-1.1-1.6-1.4-2.6c-0.3-1-0.5-2.1-0.5-3.3c0-1.2,0.2-2.3,0.5-3.3c0.3-1,0.8-1.9,1.4-2.7
			c0.6-0.8,1.4-1.4,2.3-1.8c0.9-0.4,2-0.7,3.3-0.7c0.9,0,1.7,0.1,2.5,0.3c0.8,0.2,1.5,0.5,2.1,1c0.6,0.4,1.1,1,1.5,1.7
			c0.4,0.7,0.6,1.5,0.7,2.4h-2.7C93.7,11.3,93.3,10.5,92.6,10z"/>
		<path class="st0" d="M113.6,23c-0.4,0.3-1.1,0.4-1.9,0.4c-0.7,0-1.2-0.2-1.6-0.6c-0.4-0.4-0.6-1-0.6-1.8c-0.7,0.9-1.5,1.5-2.5,1.8
			c-0.9,0.4-2,0.6-3.1,0.6c-0.7,0-1.4-0.1-2-0.2c-0.6-0.2-1.2-0.4-1.7-0.8c-0.5-0.3-0.8-0.8-1.1-1.4c-0.3-0.6-0.4-1.2-0.4-2
			c0-0.9,0.2-1.6,0.5-2.2c0.3-0.6,0.7-1,1.2-1.4c0.5-0.4,1.1-0.6,1.7-0.8c0.6-0.2,1.3-0.3,2-0.5c0.7-0.1,1.4-0.2,2-0.3
			c0.6-0.1,1.2-0.2,1.7-0.3c0.5-0.1,0.9-0.3,1.2-0.6c0.3-0.3,0.4-0.6,0.4-1.1c0-0.6-0.1-1-0.3-1.4c-0.2-0.3-0.5-0.6-0.8-0.8
			c-0.3-0.2-0.7-0.3-1.1-0.4c-0.4-0.1-0.8-0.1-1.2-0.1c-1.1,0-2,0.2-2.8,0.6c-0.7,0.4-1.1,1.2-1.2,2.4h-2.6c0-1,0.2-1.8,0.6-2.5
			c0.4-0.7,0.9-1.2,1.5-1.6c0.6-0.4,1.3-0.7,2.1-0.9c0.8-0.2,1.6-0.3,2.5-0.3c0.7,0,1.4,0.1,2.1,0.2c0.7,0.1,1.3,0.3,1.9,0.6
			c0.6,0.3,1,0.8,1.4,1.3c0.3,0.6,0.5,1.3,0.5,2.2v8.1c0,0.6,0,1.1,0.1,1.3c0.1,0.3,0.3,0.4,0.7,0.4c0.2,0,0.5,0,0.8-0.1V23z
			 M109.4,14.9c-0.3,0.2-0.8,0.4-1.3,0.5c-0.5,0.1-1.1,0.2-1.7,0.3c-0.6,0.1-1.2,0.2-1.8,0.2c-0.6,0.1-1.1,0.2-1.6,0.4
			c-0.5,0.2-0.9,0.5-1.1,0.9c-0.3,0.4-0.4,0.9-0.4,1.5c0,0.4,0.1,0.8,0.3,1.1c0.2,0.3,0.4,0.5,0.7,0.7c0.3,0.2,0.6,0.3,1,0.4
			c0.4,0.1,0.8,0.1,1.2,0.1c0.9,0,1.6-0.1,2.2-0.3c0.6-0.2,1.1-0.5,1.5-0.9c0.4-0.4,0.7-0.7,0.9-1.2s0.3-0.8,0.3-1.2V14.9z"/>
		<path class="st0" d="M124.2,19.5c0.2,0.4,0.6,0.7,1,0.9c0.4,0.2,0.8,0.4,1.3,0.5c0.5,0.1,1,0.2,1.5,0.2c0.4,0,0.8,0,1.3-0.1
			c0.4-0.1,0.9-0.2,1.2-0.3c0.4-0.2,0.7-0.4,0.9-0.7c0.2-0.3,0.4-0.7,0.4-1.2c0-0.7-0.3-1.2-0.8-1.5c-0.5-0.3-1.1-0.6-1.9-0.8
			c-0.8-0.2-1.6-0.4-2.5-0.6c-0.9-0.2-1.7-0.4-2.5-0.7c-0.8-0.3-1.4-0.8-1.9-1.3c-0.5-0.6-0.8-1.4-0.8-2.4c0-0.8,0.2-1.5,0.5-2
			c0.4-0.6,0.8-1,1.4-1.4c0.6-0.4,1.2-0.6,1.9-0.8c0.7-0.2,1.4-0.3,2.1-0.3c0.9,0,1.7,0.1,2.5,0.2c0.8,0.2,1.4,0.4,2,0.8
			c0.6,0.4,1,0.9,1.4,1.5c0.3,0.6,0.6,1.4,0.6,2.4h-2.6c0-0.5-0.2-0.9-0.4-1.3c-0.2-0.3-0.5-0.6-0.9-0.8c-0.3-0.2-0.7-0.4-1.1-0.4
			c-0.4-0.1-0.8-0.1-1.3-0.1c-0.4,0-0.8,0-1.2,0.1c-0.4,0.1-0.8,0.2-1.1,0.3c-0.3,0.2-0.6,0.4-0.8,0.6c-0.2,0.3-0.3,0.6-0.3,1
			c0,0.4,0.2,0.8,0.5,1.1c0.3,0.3,0.7,0.5,1.2,0.7c0.5,0.2,1,0.4,1.7,0.5c0.6,0.1,1.2,0.3,1.8,0.4c0.7,0.1,1.3,0.3,1.9,0.5
			c0.6,0.2,1.2,0.5,1.7,0.8c0.5,0.3,0.9,0.8,1.2,1.3c0.3,0.5,0.4,1.1,0.4,1.9c0,1-0.2,1.8-0.6,2.4c-0.4,0.6-0.9,1.1-1.6,1.5
			c-0.6,0.4-1.4,0.7-2.2,0.8c-0.8,0.2-1.6,0.2-2.4,0.2c-0.9,0-1.7-0.1-2.5-0.3c-0.8-0.2-1.5-0.5-2.1-0.9c-0.6-0.4-1.1-1-1.5-1.7
			c-0.4-0.7-0.6-1.5-0.6-2.5h2.6C123.9,18.6,124,19.1,124.2,19.5z"/>
	</g>
	<path class="st0" d="M10.3,49.1v-9.8c0-2.4-0.8-3.1-2.7-3.1c-2.1,0-3.2,1.7-3.2,3.9v9.1H0.1V27.4h4.2v7.9c0.6-1.4,2.5-2.5,4.7-2.5
		c3.2,0,5.5,1.9,5.5,5.1v11.2H10.3z"/>
	<path class="st0" d="M20.1,42.2c0.1,2.4,1.5,3.9,3.5,3.9c1.4,0,2.5-0.7,2.8-1.8h4.3c-1,3.3-3.6,5.1-7,5.1c-5.3,0-7.9-2.9-7.9-8.6
		c0-4.9,2.8-8,7.7-8c4.9,0,7.4,3.2,7.4,9.4H20.1z M26.7,39.6c-0.1-2.3-1.6-3.5-3.2-3.5c-1.7,0-3.1,1.3-3.2,3.5H26.7z"/>
	<g class="st1">
		<path class="st0" d="M37,27.3v21.8h-2.6V27.3H37z"/>
		<path class="st0" d="M43.7,33.3v2.1h0.1c0.4-0.9,1.1-1.5,2-1.9c0.9-0.4,1.9-0.6,3-0.6c1.2,0,2.3,0.2,3.2,0.7
			c0.9,0.4,1.7,1.1,2.3,1.8c0.6,0.8,1.1,1.6,1.4,2.6c0.3,1,0.5,2.1,0.5,3.2c0,1.1-0.1,2.2-0.4,3.2c-0.3,1-0.7,1.9-1.3,2.6
			c-0.6,0.7-1.4,1.3-2.3,1.8c-0.9,0.4-2,0.6-3.2,0.6c-0.4,0-0.8,0-1.3-0.1c-0.5-0.1-1-0.2-1.4-0.4c-0.5-0.2-0.9-0.4-1.3-0.7
			c-0.4-0.3-0.8-0.7-1.1-1.2h-0.1v8.1h-2.6V33.3H43.7z M53.1,38.9c-0.2-0.7-0.5-1.3-0.9-1.9c-0.4-0.6-0.9-1-1.5-1.3
			c-0.6-0.3-1.4-0.5-2.2-0.5c-0.9,0-1.6,0.2-2.2,0.5c-0.6,0.3-1.1,0.8-1.5,1.4c-0.4,0.6-0.7,1.2-0.8,1.9c-0.2,0.7-0.3,1.4-0.3,2.2
			c0,0.8,0.1,1.5,0.3,2.2c0.2,0.7,0.5,1.4,0.9,1.9c0.4,0.6,0.9,1,1.5,1.3c0.6,0.3,1.4,0.5,2.3,0.5c0.9,0,1.6-0.2,2.2-0.5
			c0.6-0.3,1.1-0.8,1.5-1.4c0.4-0.6,0.6-1.2,0.8-2c0.2-0.7,0.2-1.5,0.2-2.3C53.3,40.3,53.2,39.6,53.1,38.9z"/>
		<path class="st0" d="M70.3,48.1c-1.2,0.9-2.7,1.3-4.5,1.3c-1.3,0-2.4-0.2-3.3-0.6c-0.9-0.4-1.7-1-2.3-1.7
			c-0.6-0.7-1.1-1.6-1.4-2.6c-0.3-1-0.5-2.1-0.5-3.3c0-1.2,0.2-2.3,0.6-3.3c0.4-1,0.9-1.9,1.5-2.6c0.7-0.7,1.4-1.3,2.4-1.7
			c0.9-0.4,1.9-0.6,3-0.6c1.4,0,2.6,0.3,3.5,0.9c0.9,0.6,1.7,1.3,2.2,2.2c0.6,0.9,0.9,1.9,1.2,2.9c0.2,1.1,0.3,2.1,0.3,3H61
			c0,0.7,0.1,1.4,0.2,2c0.2,0.6,0.5,1.2,0.9,1.7c0.4,0.5,0.9,0.9,1.6,1.1c0.6,0.3,1.4,0.4,2.2,0.4c1.1,0,2-0.3,2.7-0.8
			c0.7-0.5,1.2-1.3,1.4-2.3h2.6C72.3,45.8,71.5,47.2,70.3,48.1z M69.7,37.9c-0.2-0.6-0.6-1-0.9-1.4c-0.4-0.4-0.9-0.7-1.4-0.9
			c-0.5-0.2-1.1-0.4-1.8-0.4c-0.7,0-1.3,0.1-1.8,0.4c-0.5,0.2-1,0.6-1.4,1c-0.4,0.4-0.7,0.9-0.9,1.4c-0.2,0.5-0.4,1.1-0.4,1.7h9.1
			C70.1,39.1,69.9,38.5,69.7,37.9z"/>
		<path class="st0" d="M78,33.3v2.5h0.1c1.1-1.9,2.8-2.9,5.1-2.9c1,0,1.9,0.1,2.6,0.4c0.7,0.3,1.3,0.7,1.7,1.2
			c0.4,0.5,0.7,1.1,0.9,1.8c0.2,0.7,0.3,1.5,0.3,2.3v10.4h-2.6V38.4c0-1-0.3-1.8-0.9-2.3c-0.6-0.6-1.4-0.9-2.4-0.9
			c-0.8,0-1.5,0.1-2.1,0.4c-0.6,0.2-1.1,0.6-1.5,1c-0.4,0.4-0.7,1-0.9,1.6c-0.2,0.6-0.3,1.3-0.3,2v8.9h-2.6V33.3H78z"/>
		<path class="st0" d="M104.1,49.1v-2.1H104c-0.4,0.9-1.1,1.5-2,1.9c-0.9,0.4-1.9,0.6-3,0.6c-1.2,0-2.3-0.2-3.2-0.7
			c-0.9-0.4-1.7-1-2.3-1.8c-0.6-0.8-1.1-1.6-1.4-2.6c-0.3-1-0.5-2.1-0.5-3.2c0-1.1,0.1-2.2,0.4-3.2c0.3-1,0.7-1.9,1.3-2.6
			c0.6-0.7,1.4-1.3,2.3-1.8c0.9-0.4,2-0.7,3.2-0.7c0.4,0,0.8,0,1.3,0.1c0.5,0.1,0.9,0.2,1.4,0.4c0.5,0.2,0.9,0.4,1.3,0.8
			c0.4,0.3,0.8,0.7,1.1,1.2h0.1v-8.1h2.6v21.8H104.1z M94.7,43.5c0.2,0.7,0.5,1.3,0.9,1.9c0.4,0.6,0.9,1,1.5,1.3
			c0.6,0.3,1.3,0.5,2.2,0.5c0.9,0,1.6-0.2,2.2-0.5c0.6-0.3,1.1-0.8,1.5-1.4c0.4-0.6,0.7-1.2,0.8-1.9c0.2-0.7,0.3-1.4,0.3-2.2
			c0-0.8-0.1-1.5-0.3-2.2c-0.2-0.7-0.5-1.4-0.9-1.9c-0.4-0.6-0.9-1-1.5-1.3c-0.6-0.3-1.4-0.5-2.3-0.5c-0.9,0-1.6,0.2-2.2,0.5
			c-0.6,0.3-1.1,0.8-1.5,1.4c-0.4,0.6-0.6,1.2-0.8,2c-0.2,0.7-0.2,1.5-0.2,2.3C94.5,42.1,94.6,42.8,94.7,43.5z"/>
		<path class="st0" d="M121.9,48.1c-1.2,0.9-2.7,1.3-4.5,1.3c-1.3,0-2.4-0.2-3.3-0.6c-0.9-0.4-1.7-1-2.3-1.7
			c-0.6-0.7-1.1-1.6-1.4-2.6c-0.3-1-0.5-2.1-0.5-3.3c0-1.2,0.2-2.3,0.6-3.3c0.4-1,0.9-1.9,1.5-2.6c0.7-0.7,1.4-1.3,2.4-1.7
			c0.9-0.4,1.9-0.6,3-0.6c1.4,0,2.6,0.3,3.5,0.9c0.9,0.6,1.7,1.3,2.2,2.2c0.6,0.9,0.9,1.9,1.2,2.9c0.2,1.1,0.3,2.1,0.3,3h-11.8
			c0,0.7,0.1,1.4,0.2,2c0.2,0.6,0.5,1.2,0.9,1.7c0.4,0.5,0.9,0.9,1.6,1.1c0.6,0.3,1.4,0.4,2.2,0.4c1.1,0,2-0.3,2.7-0.8
			c0.7-0.5,1.2-1.3,1.4-2.3h2.6C123.8,45.8,123.1,47.2,121.9,48.1z M121.3,37.9c-0.2-0.6-0.6-1-0.9-1.4c-0.4-0.4-0.9-0.7-1.4-0.9
			c-0.5-0.2-1.1-0.4-1.8-0.4c-0.7,0-1.3,0.1-1.8,0.4c-0.5,0.2-1,0.6-1.4,1c-0.4,0.4-0.7,0.9-0.9,1.4c-0.2,0.5-0.4,1.1-0.4,1.7h9.1
			C121.6,39.1,121.5,38.5,121.3,37.9z"/>
	</g>
	<path class="st0" d="M10.1,75v-9.8c0-2.4-0.8-3.1-2.7-3.1c-2.1,0-3.3,1.7-3.3,3.9V75H0V53.3h4.2v7.9c0.6-1.4,2.5-2.5,4.7-2.5
		c3.2,0,5.5,1.9,5.5,5.1V75H10.1z"/>
	<path class="st0" d="M26.1,75c-0.1-0.4-0.2-0.9-0.3-1.4c-1,1.1-2.7,1.8-4.8,1.8c-3.6,0-5.3-1.8-5.3-4.3c0-4.6,3.1-5.1,7.3-5.7
		c2.1-0.3,2.7-0.7,2.7-1.8c0-1-1-1.6-2.7-1.6c-1.9,0-2.7,0.9-2.9,2.3h-3.9c0.1-3.3,1.9-5.6,7-5.6c5,0,6.8,2.3,6.8,6.2v10H26.1z
		 M25.8,67.2c-0.4,0.4-1.2,0.6-2.7,0.9c-2.4,0.5-3.2,1.1-3.2,2.5c0,1.2,0.7,1.8,2,1.8c2.2,0,3.8-1.6,3.8-3.4L25.8,67.2z"/>
	<g class="st1">
		<path class="st0" d="M36.1,59.3v2.5h0.1c1.1-1.9,2.8-2.9,5.1-2.9c1,0,1.9,0.1,2.6,0.4c0.7,0.3,1.3,0.7,1.7,1.2
			c0.4,0.5,0.7,1.1,0.9,1.8c0.2,0.7,0.3,1.5,0.3,2.3v10.4h-2.6V64.5c0-1-0.3-1.8-0.9-2.3c-0.6-0.6-1.4-0.9-2.4-0.9
			c-0.8,0-1.5,0.1-2.1,0.4c-0.6,0.2-1.1,0.6-1.5,1c-0.4,0.4-0.7,1-0.9,1.6c-0.2,0.6-0.3,1.3-0.3,2v8.9h-2.6V59.3H36.1z"/>
		<path class="st0" d="M62.1,75.2V73h-0.1c-0.4,0.9-1.1,1.5-2,1.9c-0.9,0.4-1.9,0.6-3,0.6c-1.2,0-2.3-0.2-3.2-0.7
			c-0.9-0.4-1.7-1-2.3-1.8c-0.6-0.8-1.1-1.6-1.4-2.6c-0.3-1-0.5-2.1-0.5-3.2c0-1.1,0.1-2.2,0.4-3.2c0.3-1,0.7-1.9,1.3-2.6
			c0.6-0.7,1.4-1.3,2.3-1.8c0.9-0.4,2-0.7,3.2-0.7c0.4,0,0.8,0,1.3,0.1c0.5,0.1,0.9,0.2,1.4,0.4c0.5,0.2,0.9,0.4,1.3,0.8
			c0.4,0.3,0.8,0.7,1.1,1.2h0.1v-8.1h2.6v21.8H62.1z M52.8,69.5c0.2,0.7,0.5,1.3,0.9,1.9c0.4,0.6,0.9,1,1.5,1.3
			c0.6,0.3,1.3,0.5,2.2,0.5c0.9,0,1.6-0.2,2.2-0.5c0.6-0.3,1.1-0.8,1.5-1.4c0.4-0.6,0.7-1.2,0.8-1.9c0.2-0.7,0.3-1.4,0.3-2.2
			c0-0.8-0.1-1.5-0.3-2.2c-0.2-0.7-0.5-1.4-0.9-1.9c-0.4-0.6-0.9-1-1.5-1.3c-0.6-0.3-1.4-0.5-2.3-0.5c-0.9,0-1.6,0.2-2.2,0.5
			c-0.6,0.3-1.1,0.8-1.5,1.4c-0.4,0.6-0.6,1.2-0.8,2c-0.2,0.7-0.2,1.5-0.2,2.3C52.5,68.1,52.6,68.8,52.8,69.5z"/>
	</g>
	<g>
		<path class="st0" d="M118.3,1.5c0,0-2.9,3.5-2.9,3.7s-0.5,1.6-0.5,1.6l0.8,1.8l1,0.6l1.6-0.2l1.1-1l0.5-1.3l-0.2-1.6l-0.7-3
			l-0.4-1L118.3,1.5z"/>
		<path class="st0" d="M118.9,0.8L118.7,0l-0.5,0.6c-0.3,0.4-3.4,4.2-3.7,5.6c-0.3,1.5,0.7,3.1,2.2,3.4c0.2,0,0.4,0.1,0.6,0.1
			c0.6,0,1.1-0.2,1.6-0.5c0.6-0.4,1.1-1.1,1.2-1.8C120.4,6,119.1,1.3,118.9,0.8z M116.9,8.7c-1.1-0.2-1.8-1.3-1.6-2.4
			c0.2-0.7,1.6-2.8,3-4.5c0.6,2.2,1.1,4.6,1,5.3c-0.1,0.5-0.4,1-0.9,1.3C118,8.7,117.4,8.8,116.9,8.7z"/>
		<path class="st0" d="M118.1,6.4l0,0.2c-0.1,0.5-0.6,0.8-1.1,0.7l-0.2,0l-0.2,0.8l0.2,0c0.1,0,0.2,0,0.4,0c0.8,0,1.6-0.6,1.8-1.4
			l0-0.2L118.1,6.4z"/>
	</g>
</g>
</svg>
