<?xml version="1.0" encoding="utf-8"?>
<!-- Generator: Adobe Illustrator 28.0.0, SVG Export Plug-In . SVG Version: 6.00 Build 0)  -->
<svg version="1.1" id="Laag_1" xmlns="http://www.w3.org/2000/svg" xmlns:xlink="http://www.w3.org/1999/xlink" x="0px" y="0px"
	 viewBox="0 0 150 150" style="enable-background:new 0 0 150 150;" xml:space="preserve">
<style type="text/css">
	.Slagschaduw{fill:none;}
	.Buitenste_x0020_gloed_x0020_5_x0020_pt{fill:none;}
	.Blauw_x0020_neon{fill:none;stroke:#8AACDA;stroke-width:7;stroke-linecap:round;stroke-linejoin:round;}
	.Hooglicht_x002C__x0020_chroom{fill:url(#SVGID_1_);stroke:#FFFFFF;stroke-width:0.3629;stroke-miterlimit:1;}
	.Jive_AS{fill:#FFDD00;}
	.Alyssa_AS{fill:#A6D0E4;}
	.st0{display:none;}
	.st1{display:inline;}
	.st2{display:inline;fill-rule:evenodd;clip-rule:evenodd;fill:#FFFFFF;}
	.st3{display:none;fill:#FFFFFF;}
	.st4{fill:#666666;}
	.st5{fill:#063B59;}
</style>
<linearGradient id="SVGID_1_" gradientUnits="userSpaceOnUse" x1="0" y1="0" x2="6.123234e-17" y2="-1">
	<stop  offset="0" style="stop-color:#656565"/>
	<stop  offset="0.618" style="stop-color:#1B1B1B"/>
	<stop  offset="0.6292" style="stop-color:#545454"/>
	<stop  offset="0.9831" style="stop-color:#3E3E3E"/>
</linearGradient>
<g class="st0">
	<rect class="st1" width="150" height="150"/>
</g>
<g class="st0">
	<path class="st2" d="M102.8,139.6h-55c2.2-3.6,3.5-7.8,3.5-12.2c0-12.8-10.4-23.2-23.2-23.2c-12.8,0-23.2,10.4-23.2,23.2
		c0,4.5,1.3,8.7,3.5,12.2H2.1c-1.3-4.6-1.9-8.9-2-12.8C-1.6,75.4,88,80.7,102.8,139.6L102.8,139.6z M46.1,142.1h57.1v5.4H37.7
		C41.6,146.7,43.9,144.5,46.1,142.1z"/>
	<circle class="st2" cx="28.2" cy="127.4" r="20.1"/>
	<path class="st2" d="M149.5,139.6h-34.8L81.5,27.4l5.4-1.6l31,104.6C126.3,129,148.1,132.7,149.5,139.6L149.5,139.6z M115,142.1h35
		v5.4h-35C115,147.5,115,142.1,115,142.1z"/>
	<path class="st2" d="M80.4,24.2c-4.1-9.1-13-15.9-23.2-15.7C49.2,8.6,43,13,40.8,20.7c-3,10.3,5,19.4,13.4,29.1
		C65,62.3,76.5,76,70.5,95l-5.7-2.3c4.9-15.8-5.5-27.8-15.2-39C40.1,42.8,31.1,32.4,35,19C38,8.8,46.5,2.6,57.1,2.5
		C69.6,2.3,81.4,10.9,86,22.3L80.4,24.2z"/>
</g>
<path class="st3" d="M149.4,89.8c1.8-3.4-43-22.6-44.9-24.3c-0.2-0.8-0.8-1.5-1.6-1.9l-8.2-3.6c-1.1-0.5-2.5-0.2-3.3,0.7
	c-4.6-3-15.3-6.3-22.1-4.9L67,54.2c-5.9-7.5-26.7-42-34.5-46.9c-4.6-3.5-9.8-6-15.4-7.3c-1.1-0.2-2.1,0.4-2.4,1.5
	c-0.1,0.3-0.1,0.7,0,1.1l0.9,2.7c0.1,0.5,16.5,26.5,16.8,27C30.9,31.5,3.8,13.6,2.8,14.4c-7-1.1,2.9,15.8,4.6,17.8
	C12.1,39.9,46.8,61.3,54,67l1.5,2.4c-1.5,6.8,1.8,17.4,4.8,22.1c-0.9,0.8-1.2,2.2-0.7,3.3l3.6,8.2c0.3,0.8,1,1.4,1.8,1.6l20.3,41.8
	c1.6,3.2,5.4,4.5,8.5,2.9c0,0,0.1,0,0.1-0.1c2.6-1.6,7.7-3.1,8.3-6.6c3.4-1.9-23.1-42.8-23.6-45.2c0.3-0.8,0.2-1.7-0.3-2.4l-4.8-7.6
	c-0.5-0.7-1.2-1.2-2.1-1.3l-0.8-3.2c1.4-1.1,6.3-2.7,4.4-5.3l-3.5-4.7c-1.5-1.9-3.3-0.1-4.4,1.2C66,74,66,72.5,66.5,71.9
	c1.2-1.1,2.5-2.4,1.2-4c0,0,0.1-0.1,0.1-0.1c1.6,1.3,2.9,0.1,4-1.1c0.6-0.5,2.1-0.5,2.2,0.7c-1.3,1.1-3.1,2.9-1.2,4.4l4.7,3.5
	c2.5,1.9,4.2-3,5.3-4.4l3.2,0.9c0.1,0.9,0.6,1.7,1.3,2.1l7.6,4.8c0.7,0.5,1.6,0.6,2.4,0.3c1.6,0.3,42.5,26,43.3,24.2
	c2.3,0,4.5-1.3,5.6-3.4C147.4,97.1,150.7,93,149.4,89.8z M18.7,37.6C12.4,33.2,7.7,27,5.2,19.8L37.2,40l11.5,18.5L18.7,37.6z
	 M98.3,139.7c0.7,1.2,0.3,2.6-0.9,3.3c0,0,0,0-0.1,0c-1.3,0.4-5.6,3.7-7.1,2.9c-0.6-0.2-1.1-0.6-1.4-1.2l-20-41.1l6.7-3.5
	L98.3,139.7z M70.8,90.3l3.6,5.8l-8.1,4.3l-2.7-6.3L70.8,90.3z M66.1,63.7c-1,1.4-4.1,3.5-2.4,5.4c-3.1,2.9-1.3,9.6,4.5,9
	c0.6-0.1,1.2-0.4,1.6-1l0.8,1.1l-3.3,2c-0.7,0.5-1.1,1.3-0.9,2.2l1.3,5l-4,2.1c-2.5-4.1-5.7-14.1-4.2-20.3c0.1-0.5,0-1-0.3-1.4
	L20,5.1c7.2,2.5,13.4,7.3,17.7,13.5L66.1,60C67.1,61.1,67.1,62.7,66.1,63.7z M87.3,68.1l-5-1.3c-0.8-0.2-1.7,0.1-2.2,0.9l-2.1,3.3
	L76.9,70c0.5-0.4,0.9-1,1-1.6c0.7-4.1-3.8-7.2-7.2-5.6c0.2-1.1,0.1-2.2-0.3-3.2c5.8-1.1,15.4,2.2,19,4.5L87.3,68.1z M95.9,74.8
	l-5.8-3.7l3.9-7.2l6.3,2.8L95.9,74.8z M145.4,92.8c-0.8,1.1-2.6,6.2-4.2,6.4c-0.6,0.2-1.3,0.1-1.9-0.2L99.8,76l3.6-6.7l41,20.3
	C145.6,90.1,146,91.6,145.4,92.8C145.4,92.8,145.4,92.8,145.4,92.8L145.4,92.8z"/>
<g class="st0">
	<path class="st2" d="M75.1,35.9c25.9,0,46.9,21,46.9,46.9c0,25.9-21,46.9-46.9,46.9c-25.9,0-46.9-21-46.9-46.9
		C28.2,57,49.2,35.9,75.1,35.9z M75.1,48.2c19.1,0,34.7,15.5,34.7,34.7c0,19.1-15.5,34.7-34.7,34.7c-19.1,0-34.7-15.5-34.7-34.7
		C40.4,63.7,56,48.2,75.1,48.2z"/>
	<path class="st2" d="M12.5,21.5c6.9,0,12.5,8.5,12.5,19.1c0,7.9-3.2,14.8-7.7,17.6v68.9c-2.9,4-6.1,4-9.5,0V58.2
		C3.2,55.4,0,48.6,0,40.6C0,30.1,5.6,21.5,12.5,21.5z"/>
	<path class="st2" d="M150,55.3c0,2.3-6.3,2.5-7.4,3.2v68.9c-2.9,4-6.1,4-9.5,0V58.5c-1.2-0.8-7.4-0.9-7.4-3.2c0-10.8,0-21.6,0-32.5
		c0-1.3,2-2.1,4.9-2.7v29.6h4.7V19.6c1.7-0.1,3.4-0.1,5.1,0v30.1h4.7V20.2c2.9,0.5,5,1.4,5,2.6C150,33.6,150,44.4,150,55.3z"/>
	<path class="st2" d="M75.1,52.2c17,0,30.7,13.8,30.7,30.7c0,17-13.8,30.7-30.7,30.7c-17,0-30.7-13.8-30.7-30.7
		C44.4,65.9,58.2,52.2,75.1,52.2z"/>
</g>
<g>
	<path class="st4" d="M40,35.4c-1.4,1.1-1.7,3.1-0.7,4.5c1.1,1.4,3.1,1.7,4.5,0.7c8.8-6.5,4.3-15.8,0.3-24C40.9,9.7,45,6.6,45.9,6
		c1.5-0.9,2-2.9,1.1-4.4c-0.9-1.5-2.9-2-4.4-1.1c-3.6,2.1-9.1,8.8-4.2,19C43.7,30.2,43.4,32.8,40,35.4z"/>
	<path class="st4" d="M58,35.4c-1.4,1.1-1.7,3.1-0.7,4.5c1.1,1.4,3.1,1.7,4.5,0.7c8.8-6.5,4.3-15.8,0.3-24C58.8,9.7,63,6.6,63.9,6
		c1.5-0.9,2-2.9,1.1-4.5c-0.9-1.5-2.9-2-4.4-1.1c-3.6,2.1-9.1,8.8-4.2,19C61.6,30.2,61.4,32.8,58,35.4z"/>
	<path class="st4" d="M75.9,35.4c-1.4,1.1-1.7,3.1-0.7,4.5c1.1,1.4,3.1,1.7,4.5,0.7c8.8-6.5,4.3-15.8,0.3-24
		c-3.4-6.9,0.8-10,1.7-10.6c1.5-0.9,2-2.9,1.1-4.5c-0.9-1.5-2.9-2-4.4-1.1c-3.6,2.1-9.1,8.8-4.2,19C79.5,30.2,79.3,32.8,75.9,35.4z"
		/>
	<path class="st5" d="M110,69h-3V52c0-1.8-1.4-3.2-3.2-3.2c0,0,0,0,0,0H20c-1.8,0-3.2,1.4-3.2,3.2c0,0,0,0,0,0v72.3
		c0.1,14.2,11.6,25.7,25.9,25.7h38.5c14.2,0,25.8-11.5,25.9-25.7v-8.6h3c12.9,0,23.3-10.4,23.3-23.3C133.1,79.6,122.8,69.2,110,69z
		 M90.9,96.1c0,8.5-6.7,15.5-15.2,15.9c0.3,2.8,1,5.5,2.2,8.1l2.2,4.8l-4.7-2.3c-5.3-2.6-10.7-5.3-13.6-10.5H49c-8.8,0-16-7.2-16-16
		v-9.4c0-8.8,7.2-16,16-16h26c8.8,0,16,7.2,16,16V96.1z M110,109.2h-3V75.5h3c9.2,0.1,16.7,7.6,16.8,16.8
		C126.8,101.7,119.3,109.2,110,109.2z"/>
</g>
</svg>
