<?xml version="1.0" encoding="utf-8"?>
<!-- Generator: Adobe Illustrator 28.0.0, SVG Export Plug-In . SVG Version: 6.00 Build 0)  -->
<svg version="1.1" id="Laag_1" xmlns="http://www.w3.org/2000/svg" xmlns:xlink="http://www.w3.org/1999/xlink" x="0px" y="0px"
	 viewBox="0 0 60 60" style="enable-background:new 0 0 60 60;" xml:space="preserve">
<style type="text/css">
	.Slagschaduw{fill:none;}
	.Buitenste_x0020_gloed_x0020_5_x0020_pt{fill:none;}
	.Blauw_x0020_neon{fill:none;stroke:#8AACDA;stroke-width:7;stroke-linecap:round;stroke-linejoin:round;}
	.Hooglicht_x002C__x0020_chroom{fill:url(#SVGID_1_);stroke:#FFFFFF;stroke-width:0.3629;stroke-miterlimit:1;}
	.Jive_AS{fill:#FFDD00;}
	.Alyssa_AS{fill:#A6D0E4;}
	.st0{fill:#FFFFFF;}
</style>
<linearGradient id="SVGID_1_" gradientUnits="userSpaceOnUse" x1="0" y1="0" x2="6.123234e-17" y2="-1">
	<stop  offset="0" style="stop-color:#656565"/>
	<stop  offset="0.618" style="stop-color:#1B1B1B"/>
	<stop  offset="0.6292" style="stop-color:#545454"/>
	<stop  offset="0.9831" style="stop-color:#3E3E3E"/>
</linearGradient>
<g>
	<path class="st0" d="M2.5,10.4c1.4-1.3,3.2-2,5.1-2h44.8c1.9,0,3.7,0.7,5.1,2l-23,17c-2.7,2-6.3,2-9,0L2.5,10.4z M36.6,30.4
		c-3.9,2.9-9.3,2.9-13.3,0L0.4,13.5C0.2,14.3,0,15.2,0,16V44c0,4.2,3.4,7.6,7.6,7.6h44.8c4.2,0,7.6-3.4,7.6-7.6V16
		c0-0.9-0.2-1.7-0.4-2.6L36.6,30.4z"/>
</g>
</svg>
