<?xml version="1.0" encoding="utf-8"?>
<!-- Generator: Adobe Illustrator 28.0.0, SVG Export Plug-In . SVG Version: 6.00 Build 0)  -->
<svg version="1.1" id="Laag_1" xmlns="http://www.w3.org/2000/svg" xmlns:xlink="http://www.w3.org/1999/xlink" x="0px" y="0px"
	 viewBox="0 0 60 60" style="enable-background:new 0 0 60 60;" xml:space="preserve">
<style type="text/css">
	.Slagschaduw{fill:none;}
	.Buitenste_x0020_gloed_x0020_5_x0020_pt{fill:none;}
	.Blauw_x0020_neon{fill:none;stroke:#8AACDA;stroke-width:7;stroke-linecap:round;stroke-linejoin:round;}
	.Hooglicht_x002C__x0020_chroom{fill:url(#SVGID_1_);stroke:#FFFFFF;stroke-width:0.3629;stroke-miterlimit:1;}
	.Jive_AS{fill:#FFDD00;}
	.Alyssa_AS{fill:#A6D0E4;}
	.st0{fill:none;}
	.st1{fill:#FFFFFF;}
</style>
<linearGradient id="SVGID_1_" gradientUnits="userSpaceOnUse" x1="0" y1="0" x2="6.123234e-17" y2="-1">
	<stop  offset="0" style="stop-color:#656565"/>
	<stop  offset="0.618" style="stop-color:#1B1B1B"/>
	<stop  offset="0.6292" style="stop-color:#545454"/>
	<stop  offset="0.9831" style="stop-color:#3E3E3E"/>
</linearGradient>
<path id="heartin" class="st0" d="M44.5,6.1c-1.5-1.8-3.2-2.6-5.2-2.6C35.8,3.7,32.4,6.9,30,10c-2.5-3.1-5.8-6.3-9.3-6.4
	c-2-0.1-3.7,0.8-5.2,2.6c-0.1,0.1-0.1,0.1-0.1,0.1c-0.1,0.1-2,3.2-1,7.9c1.3,5.9,6.3,11.5,14.8,17h0.1c0.1,0,0.1,0.1,0.1,0.1
	c0.1,0,0.1,0.1,0.1,0.1c0.1,0,0.2,0,0.3,0.1h0.1l0,0l0,0H30c0.1,0,0.2,0,0.3-0.1c0.1,0,0.1-0.1,0.1-0.1c0.1,0,0.1-0.1,0.1-0.1h0.1
	c8.7-5.4,13.7-11.1,15-16.9c1-4.8-0.8-7.7-1-7.9C44.6,6.3,44.6,6.2,44.5,6.1z"/>
<path id="heart" class="st1" d="M45.3,5.5c-1.6-1.9-3.4-2.8-5.5-2.7C36.1,3,32.5,6.3,30,9.6c-2.6-3.3-6.1-6.6-9.8-6.8
	c-2.1-0.1-3.9,0.8-5.5,2.7c-0.1,0.1-0.1,0.1-0.1,0.1c-0.1,0.1-2.1,3.3-1,8.3c1.4,6.2,6.6,12.1,15.6,17.9h0.1c0.1,0,0.1,0.1,0.1,0.1
	c0.1,0,0.1,0.1,0.1,0.1c0.1,0,0.2,0,0.3,0.1h0.1l0,0l0,0H30c0.1,0,0.2,0,0.3-0.1c0.1,0,0.1-0.1,0.1-0.1c0.1,0,0.1-0.1,0.1-0.1h0.1
	c9.1-5.7,14.5-11.7,15.8-17.8c1.1-5-0.9-8.1-1-8.3C45.4,5.7,45.4,5.6,45.3,5.5z M30,28.9C12.1,17.2,16.4,8.2,17,7.3
	c0.9-1.1,2-1.6,3.1-1.6c2.4,0.1,5.6,2.7,8.8,7.1c0,0,0,0.1,0.1,0.1C29,13,29,13,29,13.1s0.1,0.1,0.1,0.1l0.1,0.1c0,0,0,0,0.1,0
	c0.1,0,0.1,0.1,0.1,0.1l0.1,0.1c0.1,0,0.1,0.1,0.1,0.1h0.1c0.1,0,0.1,0,0.1,0H30c0.1,0,0.1,0,0.2,0h0.1c0.1,0,0.1,0,0.1-0.1h0.1
	c0.1,0,0.1-0.1,0.1-0.1s0.1-0.1,0.1-0.1c0,0,0,0,0.1,0l0.1-0.1c0.1,0,0.1-0.1,0.1-0.1c0,0,0.1-0.1,0.1-0.1l0.1-0.1
	c3.2-4.4,6.4-7,8.8-7.1c1.1-0.1,2.1,0.4,3,1.6C43.6,8.3,47.9,17.2,30,28.9z"/>
<g>
	<path class="st1" d="M9.7,37.3H1.5C0.7,37.3,0,38,0,38.8v16.9c0,0.8,0.7,1.5,1.5,1.5h8.2c0.8,0,1.5-0.7,1.5-1.5V38.8
		C11.1,38,10.5,37.3,9.7,37.3z M8.2,54.3H2.9v-14h5.3V54.3z"/>
	<path class="st1" d="M57.9,41c-0.4-0.1-0.8-0.1-1.3-0.1c-1.7,0-3.5,0.7-3.6,0.7c-2.2,0.7-10.5,3.4-12.2,4c-0.8-0.1-3-0.2-5.1-0.4
		c2.5-0.4,4.6-0.7,5.2-1.1c0.9-0.5,2-1.7,2.1-3c0.1-0.9-0.4-1.8-1.3-2.4c-1-0.7-2.8-0.9-5.6-1.4C34.3,37,32,36.6,29.6,36
		c-1.2-0.3-2.5-0.4-4.1-0.4c-5.7,0-12,1.7-12.3,1.8c-0.7,0.1-1.1,0.7-1.1,1.5l0.2,16.2c0,0.8,0.7,1.5,1.5,1.5L26,56.6l16.7,0.5
		c0,0,0,0,0.1,0c0.3,0,0.6-0.1,0.8-0.2c9.8-6.2,15-9.7,15.5-10.4c0.7-0.9,1.2-2.3,0.7-3.6C59.5,41.9,58.8,41.3,57.9,41z M56.9,44.6
		c-0.9,0.8-8,5.4-14.5,9.5l-16.3-0.5l-10.9-0.1L15,39.9c2-0.5,6.5-1.4,10.4-1.4c1.4,0,2.5,0.1,3.5,0.4c2.5,0.6,4.9,0.9,6.8,1.2
		s3.8,0.6,4.4,0.9c-0.1,0.1-0.3,0.4-0.4,0.4c-0.7,0.3-5.2,0.9-8.9,1.4c-0.7,0.1-1.2,0.5-1.2,1.2c-0.1,0.2-0.3,1.5,0.5,2.5
		c0.3,0.4,0.9,1,2,1.1c1.6,0.2,8.7,0.7,9,0.7c0.2,0,0.4,0,0.6-0.1c0.1,0,10-3.3,12.4-4.1c0.4-0.1,1.7-0.5,2.8-0.5
		c0.2,0,0.4,0,0.4,0.1C57.1,44,57,44.4,56.9,44.6z"/>
</g>
</svg>
