<?xml version="1.0" encoding="utf-8"?>
<!-- Generator: Adobe Illustrator 28.0.0, SVG Export Plug-In . SVG Version: 6.00 Build 0)  -->
<svg version="1.1" id="Laag_1" xmlns="http://www.w3.org/2000/svg" xmlns:xlink="http://www.w3.org/1999/xlink" x="0px" y="0px"
	 viewBox="0 0 150 150" style="enable-background:new 0 0 150 150;" xml:space="preserve">
<style type="text/css">
	.Slagschaduw{fill:none;}
	.Buitenste_x0020_gloed_x0020_5_x0020_pt{fill:none;}
	.Blauw_x0020_neon{fill:none;stroke:#8AACDA;stroke-width:7;stroke-linecap:round;stroke-linejoin:round;}
	.Hooglicht_x002C__x0020_chroom{fill:url(#SVGID_1_);stroke:#FFFFFF;stroke-width:0.3629;stroke-miterlimit:1;}
	.Jive_AS{fill:#FFDD00;}
	.Alyssa_AS{fill:#A6D0E4;}
	.st0{fill:url(#SVGID_00000085950530261558330920000008944232170274258609_);}
	.st1{fill:url(#SVGID_00000065037982373414059980000013835132567108337317_);}
	.st2{fill:#1D1D1B;}
	.st3{fill:url(#SVGID_00000090265485593324091120000017986308452991347899_);}
	.st4{fill:url(#SVGID_00000002364978398934334350000016640680390465341881_);}
	.st5{fill:#063B59;}
	.st6{fill:url(#SVGID_00000023249527774454485540000006494707127778225810_);}
	.st7{fill:url(#SVGID_00000032646292824470087730000009657884049209943479_);}
	.st8{fill:url(#SVGID_00000121989216811660012820000002302663326275242669_);}
	.st9{fill:url(#SVGID_00000088833691292948047230000012251849397915899313_);}
	.st10{fill:url(#SVGID_00000062907692762673135010000004501715616835683242_);}
	.st11{fill:url(#SVGID_00000029733996273769772770000011114384430493457311_);}
	.st12{fill:#80160D;}
	.st13{fill:url(#SVGID_00000129199007448179101770000002100997390815117466_);}
	.st14{fill:url(#SVGID_00000024706137081140889560000008075741297401394849_);}
	.st15{fill:url(#SVGID_00000109013643702808171600000008072266845900226230_);}
	.st16{fill:url(#SVGID_00000173137243162141550820000005633039465968919965_);}
	.st17{fill:url(#SVGID_00000008124518164368894100000008686483854419480508_);}
	.st18{fill:url(#SVGID_00000127764936017869164000000005788093165126905249_);}
	.st19{fill:url(#SVGID_00000143588983756522323800000014539312152290609570_);}
	.st20{fill:#292B2C;}
	.st21{fill:url(#SVGID_00000060030167901648540290000005578955730710266505_);}
	.st22{fill:url(#SVGID_00000075156009112096585740000009747575682108361146_);}
	.st23{fill:url(#SVGID_00000068662198586162220520000010193149096289153172_);}
	.st24{fill:url(#SVGID_00000057858686185033838090000005999739900924945845_);}
	.st25{fill:#666666;}
</style>
<linearGradient id="SVGID_1_" gradientUnits="userSpaceOnUse" x1="0" y1="0" x2="6.123234e-17" y2="-1">
	<stop  offset="0" style="stop-color:#656565"/>
	<stop  offset="0.618" style="stop-color:#1B1B1B"/>
	<stop  offset="0.6292" style="stop-color:#545454"/>
	<stop  offset="0.9831" style="stop-color:#3E3E3E"/>
</linearGradient>
<g>
	
		<radialGradient id="SVGID_00000074442211092812427330000001065216666216072867_" cx="88.5061" cy="114.9089" r="70.5949" gradientUnits="userSpaceOnUse">
		<stop  offset="0" style="stop-color:#8C9295"/>
		<stop  offset="3.487098e-02" style="stop-color:#989EA0"/>
		<stop  offset="0.1411" style="stop-color:#B8BBBD"/>
		<stop  offset="0.2569" style="stop-color:#D2D4D5"/>
		<stop  offset="0.384" style="stop-color:#E6E7E8"/>
		<stop  offset="0.5282" style="stop-color:#F4F5F5"/>
		<stop  offset="0.7038" style="stop-color:#FCFDFD"/>
		<stop  offset="1" style="stop-color:#FFFFFF"/>
	</radialGradient>
	<path style="fill:url(#SVGID_00000074442211092812427330000001065216666216072867_);" d="M126.6,118.7c0,1.7-16.7,3-37.4,3
		c-20.6,0-37.4-1.3-37.4-3c0-1.6,16.7-3,37.4-3C109.9,115.7,126.6,117.1,126.6,118.7z"/>
	<g>
		<g>
			
				<linearGradient id="SVGID_00000049184021002428920080000011316948685567052944_" gradientUnits="userSpaceOnUse" x1="81.6162" y1="103.9722" x2="98.5367" y2="105.6642">
				<stop  offset="0" style="stop-color:#141414"/>
				<stop  offset="0.3155" style="stop-color:#878787"/>
				<stop  offset="0.3443" style="stop-color:#7A7A7A"/>
				<stop  offset="0.4362" style="stop-color:#555555"/>
				<stop  offset="0.5325" style="stop-color:#363636"/>
				<stop  offset="0.6329" style="stop-color:#1E1E1E"/>
				<stop  offset="0.7392" style="stop-color:#0D0D0D"/>
				<stop  offset="0.8554" style="stop-color:#030303"/>
				<stop  offset="1" style="stop-color:#000000"/>
			</linearGradient>
			<path style="fill:url(#SVGID_00000049184021002428920080000011316948685567052944_);" d="M98.5,90.1l-15-2.2l-1.4,12.4h0l-2,18.2
				c0,0,1.1,2,7,2.1c5.9,0.1,8.6-1.5,8.6-1.5l1.5-16.7l-0.1,0L98.5,90.1z"/>
			<path class="st2" d="M95.9,114.6l1.7-22.2l-14.2-5.7l-0.4,5C88.1,91.4,90.2,94.3,95.9,114.6z"/>
		</g>
		
			<linearGradient id="SVGID_00000039840201573383267470000018391455848833224868_" gradientUnits="userSpaceOnUse" x1="96.6379" y1="36.6402" x2="99.8726" y2="62.5248">
			<stop  offset="0" style="stop-color:#063B59"/>
			<stop  offset="0.104" style="stop-color:#063E5F"/>
			<stop  offset="0.2419" style="stop-color:#054770"/>
			<stop  offset="0.3987" style="stop-color:#03568B"/>
			<stop  offset="0.5685" style="stop-color:#016BB1"/>
			<stop  offset="0.6111" style="stop-color:#0071BC"/>
			<stop  offset="0.9306" style="stop-color:#008FF2"/>
			<stop  offset="1" style="stop-color:#0096FF"/>
		</linearGradient>
		<path style="fill:url(#SVGID_00000039840201573383267470000018391455848833224868_);" d="M95.1,88.9l33.8-7.3
			c0,0,8.8-40.7-13.5-42c-21-1.2-40-2.4-44.5,0c-4.5,2.4-1.7,24.4-1.7,24.4L95.1,88.9z"/>
		
			<linearGradient id="SVGID_00000115488053301922519140000013237886488180369280_" gradientUnits="userSpaceOnUse" x1="49.0872" y1="37.3542" x2="123.2873" y2="123.6747">
			<stop  offset="0" style="stop-color:#063B59"/>
			<stop  offset="0.104" style="stop-color:#063E5F"/>
			<stop  offset="0.2419" style="stop-color:#054770"/>
			<stop  offset="0.3987" style="stop-color:#03568B"/>
			<stop  offset="0.5685" style="stop-color:#016BB1"/>
			<stop  offset="0.6111" style="stop-color:#0071BC"/>
			<stop  offset="0.9306" style="stop-color:#008FF2"/>
			<stop  offset="1" style="stop-color:#0096FF"/>
		</linearGradient>
		<path style="fill:url(#SVGID_00000115488053301922519140000013237886488180369280_);" d="M52.3,81.6c0,0-1.1-42.6,21.4-42.6
			c22.5,0,23.1,19.5,23.1,25c0,5.5-1.7,25-1.7,25L52.3,81.6z"/>
		<polygon class="st5" points="52.1,79.3 51.4,80.1 53.5,82.8 93.7,90.4 120.7,85.2 130.3,80.1 128,79.3 95.2,87.2 		"/>
		<path class="st5" d="M55.3,79.2c0,0-1-37.8,18.7-37.8s20.2,17.3,20.2,22.1c0,4.9-1.5,22.1-1.5,22.1L55.3,79.2z"/>
		
			<linearGradient id="SVGID_00000169552651770992072140000004996636255502653112_" gradientUnits="userSpaceOnUse" x1="40.7195" y1="57.7608" x2="97.9872" y2="108.9214">
			<stop  offset="0" style="stop-color:#063B59"/>
			<stop  offset="0.104" style="stop-color:#063E5F"/>
			<stop  offset="0.2419" style="stop-color:#054770"/>
			<stop  offset="0.3987" style="stop-color:#03568B"/>
			<stop  offset="0.5685" style="stop-color:#016BB1"/>
			<stop  offset="0.6111" style="stop-color:#0071BC"/>
			<stop  offset="0.9306" style="stop-color:#008FF2"/>
			<stop  offset="1" style="stop-color:#0096FF"/>
		</linearGradient>
		<polygon style="fill:url(#SVGID_00000169552651770992072140000004996636255502653112_);" points="95,93.5 51.2,85.1 51.4,80.1 
			95.2,88.4 		"/>
		
			<linearGradient id="SVGID_00000057840002477198193760000014763346094198822584_" gradientUnits="userSpaceOnUse" x1="88.077" y1="58.6462" x2="129.7469" y2="95.8724" gradientTransform="matrix(0.9772 -0.2052 2.500000e-03 1.0228 3.1817 28.1254)">
			<stop  offset="0" style="stop-color:#063B59"/>
			<stop  offset="0.104" style="stop-color:#063E5F"/>
			<stop  offset="0.2419" style="stop-color:#054770"/>
			<stop  offset="0.3987" style="stop-color:#03568B"/>
			<stop  offset="0.5685" style="stop-color:#016BB1"/>
			<stop  offset="0.6111" style="stop-color:#0071BC"/>
			<stop  offset="0.9306" style="stop-color:#008FF2"/>
			<stop  offset="1" style="stop-color:#0096FF"/>
		</linearGradient>
		<polygon style="fill:url(#SVGID_00000057840002477198193760000014763346094198822584_);" points="130.3,85.3 94.7,93.4 94.7,88.2 
			130.3,80.1 		"/>
		<g>
			
				<linearGradient id="SVGID_00000011022111023234878190000007886304335115744434_" gradientUnits="userSpaceOnUse" x1="-2085.1357" y1="-151.8196" x2="-2078.4001" y2="-110.9579" gradientTransform="matrix(-6.300000e-03 9.170000e-02 0.2252 -2.680000e-02 122.0895 244.2328)">
				<stop  offset="0" style="stop-color:#F9CAB7"/>
				<stop  offset="4.850400e-02" style="stop-color:#F8C6B1"/>
				<stop  offset="0.1122" style="stop-color:#F7BBA1"/>
				<stop  offset="0.1843" style="stop-color:#F4AA86"/>
				<stop  offset="0.2626" style="stop-color:#F19160"/>
				<stop  offset="0.345" style="stop-color:#EC7130"/>
				<stop  offset="0.3989" style="stop-color:#E95A0C"/>
				<stop  offset="1" style="stop-color:#A31B17"/>
			</linearGradient>
			<path style="fill:url(#SVGID_00000011022111023234878190000007886304335115744434_);" d="M107.7,59.7c1-0.2,1.7-0.6,1.7-1.1
				l0-5.1c-0.1-0.4-0.9-0.6-1.9-0.5l-6.2,1.1c-1,0.2-1.7,0.6-1.7,1.1l0,5c0.1,0.4,0.9,0.6,1.9,0.5L107.7,59.7z"/>
			
				<linearGradient id="SVGID_00000117644172722011344930000002167090434940286368_" gradientUnits="userSpaceOnUse" x1="-2239.585" y1="-177.5093" x2="-2228.5671" y2="-132.1151" gradientTransform="matrix(-6.700000e-03 8.620000e-02 0.2197 -2.650000e-02 122.8525 245.5799)">
				<stop  offset="0.1348" style="stop-color:#F4A68A"/>
				<stop  offset="0.2152" style="stop-color:#F39E84"/>
				<stop  offset="0.3401" style="stop-color:#F18874"/>
				<stop  offset="0.4939" style="stop-color:#ED6459"/>
				<stop  offset="0.6691" style="stop-color:#E73334"/>
				<stop  offset="0.809" style="stop-color:#E20613"/>
			</linearGradient>
			<path style="fill:url(#SVGID_00000117644172722011344930000002167090434940286368_);" d="M103.9,58.9l-1.9,1.7
				c-0.9,0.2-1.7,0-1.8-0.4l0.1-4.7c-0.1-0.4,0.7-0.8,1.6-1l5-0.9c0,0,0,0.1,0,0.1C108.6,55.3,106.7,57.8,103.9,58.9z"/>
		</g>
		<g>
			
				<linearGradient id="SVGID_00000005247817842559748510000007369394803577107116_" gradientUnits="userSpaceOnUse" x1="-244.4216" y1="-1707.1791" x2="-233.4081" y2="-1640.3634" gradientTransform="matrix(-7.590000e-02 0.2414 5.350000e-02 3.920000e-02 179.2446 170.6225)">
				<stop  offset="0" style="stop-color:#F9CAB7"/>
				<stop  offset="4.850400e-02" style="stop-color:#F8C6B1"/>
				<stop  offset="0.1122" style="stop-color:#F7BBA1"/>
				<stop  offset="0.1843" style="stop-color:#F4AA86"/>
				<stop  offset="0.2626" style="stop-color:#F19160"/>
				<stop  offset="0.345" style="stop-color:#EC7130"/>
				<stop  offset="0.3989" style="stop-color:#E95A0C"/>
				<stop  offset="1" style="stop-color:#A31B17"/>
			</linearGradient>
			<path style="fill:url(#SVGID_00000005247817842559748510000007369394803577107116_);" d="M105.7,58.9c0.3,0.1,0.7-0.8,1-1.9
				l4.6-20.9c0.3-1.2,0.3-2.2,0.1-2.2l-1.7-0.4c-0.3-0.1-0.7,0.8-1,1.9l-5.6,21c-0.3,1.2-0.3,2.2-0.1,2.2L105.7,58.9z"/>
			
				<linearGradient id="SVGID_00000011714480114598441740000007035699148091237822_" gradientUnits="userSpaceOnUse" x1="-249.4309" y1="-1726.2032" x2="-228.4506" y2="-1639.7645" gradientTransform="matrix(-7.590000e-02 0.2414 5.350000e-02 3.920000e-02 179.2446 170.6225)">
				<stop  offset="0.3876" style="stop-color:#F4A68A"/>
				<stop  offset="0.4226" style="stop-color:#F2927B"/>
				<stop  offset="0.5162" style="stop-color:#EC6056"/>
				<stop  offset="0.6047" style="stop-color:#E83939"/>
				<stop  offset="0.6856" style="stop-color:#E51D24"/>
				<stop  offset="0.7562" style="stop-color:#E30C17"/>
				<stop  offset="0.809" style="stop-color:#E20613"/>
			</linearGradient>
			<path style="fill:url(#SVGID_00000011714480114598441740000007035699148091237822_);" d="M103.3,58.6l-0.3-0.1
				c-0.3-0.1-0.2-1.1,0.1-2.2l5.6-20.8c0.3-1.1,0.8-2,1-1.9l1.4,0.3c0,0.1,0,0.2-0.1,0.2C107.6,47,109.2,51.8,103.3,58.6z"/>
			<path class="st12" d="M102.8,57.9c0,0.3,0.1,0.5,0.2,0.5l2.7,0.4c0.3,0.1,0.7-0.8,1-1.9l4.6-20.9c0.1-0.5,0.2-0.9,0.2-1.3
				c0,0.4-0.1,1-0.3,1.7l-4.6,20.9c-0.3,1.2-0.8,2-1,2l-2.7-0.4C102.8,58.8,102.8,58.4,102.8,57.9z"/>
		</g>
		<g>
			
				<linearGradient id="SVGID_00000147923073617535494720000000519723865620593060_" gradientUnits="userSpaceOnUse" x1="-2334.9446" y1="-583.595" x2="-2327.9878" y2="-541.3902" gradientTransform="matrix(-3.980000e-02 6.780000e-02 0.2047 6.660000e-02 135.5872 228.6468)">
				<stop  offset="0" style="stop-color:#F9CAB7"/>
				<stop  offset="4.850400e-02" style="stop-color:#F8C6B1"/>
				<stop  offset="0.1122" style="stop-color:#F7BBA1"/>
				<stop  offset="0.1843" style="stop-color:#F4AA86"/>
				<stop  offset="0.2626" style="stop-color:#F19160"/>
				<stop  offset="0.345" style="stop-color:#EC7130"/>
				<stop  offset="0.3989" style="stop-color:#E95A0C"/>
				<stop  offset="1" style="stop-color:#A31B17"/>
			</linearGradient>
			<path style="fill:url(#SVGID_00000147923073617535494720000000519723865620593060_);" d="M115.1,35.3c0.9,0.3,1.7,0.2,1.8-0.1
				l1.8-3.9c0.1-0.3-0.6-0.9-1.5-1.1l-5.7-1.8c-0.9-0.3-1.7-0.2-1.8,0.1l-1.8,6.3c-0.1,0.3,0.6,0.9,1.5,1.1L115.1,35.3z"/>
			
				<linearGradient id="SVGID_00000101072452979248959410000000927991114302713782_" gradientUnits="userSpaceOnUse" x1="-2338.7744" y1="-596.0684" x2="-2324.7185" y2="-538.1577" gradientTransform="matrix(-3.980000e-02 6.780000e-02 0.2047 6.660000e-02 135.5872 228.6468)">
				<stop  offset="0.1348" style="stop-color:#F4A68A"/>
				<stop  offset="0.2152" style="stop-color:#F39E84"/>
				<stop  offset="0.3401" style="stop-color:#F18874"/>
				<stop  offset="0.4939" style="stop-color:#ED6459"/>
				<stop  offset="0.6691" style="stop-color:#E73334"/>
				<stop  offset="0.809" style="stop-color:#E20613"/>
			</linearGradient>
			<path style="fill:url(#SVGID_00000101072452979248959410000000927991114302713782_);" d="M111.9,35.6l-2.3,0.5
				c-0.9-0.3-1.5-0.8-1.4-1.1l1.8-6.2c0.1-0.3,0.9-0.4,1.8-0.1l4.7,1.4c0,0,0,0.1,0,0.1C117.4,32.2,114.7,35.9,111.9,35.6z"/>
			<path class="st12" d="M108.3,35.5c0.3,0.2,0.6,0.3,1,0.4l5.7-0.7c0.9,0.3,1.7,0.2,1.8-0.1l1.8-3.9c0-0.1-0.1-0.3-0.2-0.5
				c0.4,0.2,0.6,0.5,0.5,0.7l-1.8,3.9c-0.1,0.3-0.9,0.4-1.8,0.1l-5.7,0.7C109,36,108.6,35.8,108.3,35.5z"/>
		</g>
		
			<radialGradient id="SVGID_00000041292649825277668560000015935708071404621464_" cx="93.3462" cy="126.9433" r="0.872" gradientTransform="matrix(0.9848 0 0 1.0645 13.2846 -78.8701)" gradientUnits="userSpaceOnUse">
			<stop  offset="0.4888" style="stop-color:#6C5B53"/>
			<stop  offset="1" style="stop-color:#280000"/>
		</radialGradient>
		<path style="fill:url(#SVGID_00000041292649825277668560000015935708071404621464_);" d="M106.1,56.6c-0.2,0.6-0.7,1-1.1,0.9
			c-0.4-0.2-0.6-0.8-0.4-1.4c0.2-0.6,0.7-1,1.1-0.9C106.1,55.3,106.3,56,106.1,56.6z"/>
		<g>
			
				<linearGradient id="SVGID_00000003105077041702851580000015709678937380597648_" gradientUnits="userSpaceOnUse" x1="-1319.1825" y1="-1402.6234" x2="-1234.483" y2="-1322.3818" gradientTransform="matrix(9.570000e-02 8.600000e-03 -1.080000e-02 0.12 185.8101 211.493)">
				<stop  offset="0.5" style="stop-color:#D5D5D5"/>
				<stop  offset="0.5344" style="stop-color:#A3A3A2"/>
				<stop  offset="0.5717" style="stop-color:#737372"/>
				<stop  offset="0.6073" style="stop-color:#4E4E4C"/>
				<stop  offset="0.64" style="stop-color:#333331"/>
				<stop  offset="0.669" style="stop-color:#232321"/>
				<stop  offset="0.691" style="stop-color:#1D1D1B"/>
			</linearGradient>
			<path style="fill:url(#SVGID_00000003105077041702851580000015709678937380597648_);" d="M81.8,38.6c0,0.6-0.4,1-0.8,1l-7.2-0.7
				c-0.4,0-0.7-0.5-0.7-1.1l0.3-4.2c0.1-0.6,0.4-1,0.8-1l7.2,0.7c0.4,0,0.7,0.5,0.7,1.1L81.8,38.6z"/>
			<g>
				
					<linearGradient id="SVGID_00000096747353774706958060000007027834872873121960_" gradientUnits="userSpaceOnUse" x1="-1414.7061" y1="-1484.3005" x2="-1330.0022" y2="-1404.0548" gradientTransform="matrix(9.020000e-02 8.100000e-03 -1.030000e-02 0.1145 186.8488 213.548)">
					<stop  offset="0" style="stop-color:#A7A6A6"/>
					<stop  offset="0.1384" style="stop-color:#A1A0A0"/>
					<stop  offset="0.3199" style="stop-color:#919090"/>
					<stop  offset="0.5254" style="stop-color:#767575"/>
					<stop  offset="0.7486" style="stop-color:#50504F"/>
					<stop  offset="0.9837" style="stop-color:#21211F"/>
					<stop  offset="1" style="stop-color:#1D1D1B"/>
				</linearGradient>
				<path style="fill:url(#SVGID_00000096747353774706958060000007027834872873121960_);" d="M81.2,38.5c-0.1,0.5-0.4,1-0.8,0.9
					l-6.8-0.7c-0.4,0-0.7-0.5-0.6-1.1l0.3-4c0-0.5,0.4-0.9,0.8-0.9l6.8,0.7c0.4,0,0.7,0.5,0.6,1.1L81.2,38.5z"/>
				
					<linearGradient id="SVGID_00000075882944503939363840000003894159588473306014_" gradientUnits="userSpaceOnUse" x1="-1204.8555" y1="-1570.1378" x2="-1190.0248" y2="-1509.0353" gradientTransform="matrix(9.160000e-02 -2.500000e-03 -2.500000e-03 0.1196 183.0975 216.595)">
					<stop  offset="0.118" style="stop-color:#D1D1D1"/>
					<stop  offset="0.8034" style="stop-color:#8B8B8A"/>
				</linearGradient>
				<path style="fill:url(#SVGID_00000075882944503939363840000003894159588473306014_);" d="M81.5,35.2l0.1-0.6
					c0.1-0.6-0.2-1-0.6-1.1l-6.8-0.7c-0.4,0-0.8,0.4-0.8,0.9l-0.3,3.5c0,0,0.1,0,0.1,0C76,37.6,80.4,37.8,81.5,35.2z"/>
			</g>
		</g>
		
			<linearGradient id="SVGID_00000051358331449893553510000012362613322908944287_" gradientUnits="userSpaceOnUse" x1="145.1024" y1="132.3443" x2="33.2201" y2="26.3317">
			<stop  offset="0.4888" style="stop-color:#818180"/>
			<stop  offset="0.8034" style="stop-color:#1D1D1B"/>
		</linearGradient>
		<path style="fill:url(#SVGID_00000051358331449893553510000012362613322908944287_);" d="M55.8,79.8c0,0-1-37.8,18.7-37.8
			s20.2,17.3,20.2,22.1c0,4.9-1.5,22.1-1.5,22.1L55.8,79.8z"/>
		<path class="st20" d="M93.9,75c-7.2-0.9-30.8,3.6-38.1,5.1L93,86.6C93,86.6,93.5,80.8,93.9,75z"/>
		<g>
			
				<linearGradient id="SVGID_00000034786243943142309490000014803100124706421682_" gradientUnits="userSpaceOnUse" x1="57.8775" y1="88.1918" x2="56.486" y2="51.6292">
				<stop  offset="0.1067" style="stop-color:#36393B"/>
				<stop  offset="0.2079" style="stop-color:#A7AFB4"/>
				<stop  offset="0.2101" style="stop-color:#A8B0B5"/>
				<stop  offset="0.2838" style="stop-color:#C4CACE"/>
				<stop  offset="0.363" style="stop-color:#D9DEE1"/>
				<stop  offset="0.4508" style="stop-color:#E8ECEE"/>
				<stop  offset="0.5527" style="stop-color:#F1F4F7"/>
				<stop  offset="0.7022" style="stop-color:#F4F7F9"/>
			</linearGradient>
			<path style="fill:url(#SVGID_00000034786243943142309490000014803100124706421682_);" d="M91.1,49.8c-7.7,1-18,2.2-28.9,3.1
				c-0.6,0-1.2,0.1-1.8,0.1c-21.1,1.1-29.3-5.9-35-1.4c-13.2,20.2-1.5,37.7,7.1,36c5-1,22.6-2.6,46-3.8c5.4-0.3,10.6-0.5,15-0.7
				c0.4-5.3,1.2-15.3,1.2-18.8C94.7,61.5,94.5,55,91.1,49.8z"/>
			
				<linearGradient id="SVGID_00000051373051441542016270000001885786377225391489_" gradientUnits="userSpaceOnUse" x1="18.1716" y1="57.2065" x2="34.9274" y2="76.2628">
				<stop  offset="0.1798" style="stop-color:#7B8083"/>
				<stop  offset="0.2524" style="stop-color:#898F93"/>
				<stop  offset="0.3671" style="stop-color:#9AA1A5"/>
				<stop  offset="0.4867" style="stop-color:#A4ACB0"/>
				<stop  offset="0.618" style="stop-color:#A7AFB4"/>
				<stop  offset="0.641" style="stop-color:#A5ADB2"/>
				<stop  offset="0.9663" style="stop-color:#888E92"/>
			</linearGradient>
			<path style="fill:url(#SVGID_00000051373051441542016270000001885786377225391489_);" d="M24.8,56.4c0,0-4.3,7.6-3.7,14.2
				c0.6,6.6,2.5,10.9,6.2,13.5c3.7,2.6,8.3-9.9,5.8-21.1C30.6,51.8,28.2,48.9,24.8,56.4z"/>
			
				<linearGradient id="SVGID_00000033352639539822607950000007180921467437448378_" gradientUnits="userSpaceOnUse" x1="28.628" y1="84.0239" x2="28.628" y2="50.888">
				<stop  offset="5.617980e-03" style="stop-color:#A7AFB4"/>
				<stop  offset="0.2326" style="stop-color:#C0C6C9"/>
				<stop  offset="0.4734" style="stop-color:#D2D7D9"/>
				<stop  offset="0.7245" style="stop-color:#DDE1E3"/>
				<stop  offset="1" style="stop-color:#E1E4E6"/>
			</linearGradient>
			<path style="fill:url(#SVGID_00000033352639539822607950000007180921467437448378_);" d="M26.4,57.6c0,0-3.7,6.7-3.2,12.6
				c0.5,5.9,2.1,9.7,5.3,12c3.2,2.3,7.1-8.8,5-18.8C31.4,53.5,29.3,50.9,26.4,57.6z"/>
			
				<linearGradient id="SVGID_00000130636143292492170460000001842583732903640509_" gradientUnits="userSpaceOnUse" x1="22.3491" y1="60.2683" x2="35.0112" y2="74.6688">
				<stop  offset="0" style="stop-color:#393D3E"/>
				<stop  offset="0.2865" style="stop-color:#7B8083"/>
				<stop  offset="0.5507" style="stop-color:#888E92"/>
				<stop  offset="1" style="stop-color:#A7AFB4"/>
			</linearGradient>
			<path style="fill:url(#SVGID_00000130636143292492170460000001842583732903640509_);" d="M27.6,59.7c0,0-2.8,5.8-2.4,10.8
				c0.4,5,1.6,8.3,4,10.3c2.4,2,5.4-7.6,3.8-16.1C31.5,56.1,29.9,53.9,27.6,59.7z"/>
			<g>
				<path class="st25" d="M86.5,53.9c0,0.2,0,0.4,0.1,0.5c0.4,0,0.7-0.1,1.1-0.1c0-0.2,0-0.4-0.1-0.5C87.2,53.9,86.8,53.9,86.5,53.9
					z"/>
				<path class="st25" d="M74.3,54.9c0,0.2,0,0.4,0,0.5c0.2,0,0.4,0,0.5,0c0-0.2,0-0.4,0-0.5C74.7,54.9,74.5,54.9,74.3,54.9z"/>
				<path class="st25" d="M68.8,55.3c0,0.2,0,0.4,0.1,0.5c1.7-0.1,3.3-0.2,5-0.3c0-0.2,0-0.4-0.1-0.5C72.1,55.1,70.5,55.2,68.8,55.3
					z"/>
				<path class="st25" d="M89.3,53.6c-0.4,0-0.8,0.1-1.2,0.1c0,0.2,0,0.4,0.1,0.5c0.4,0,0.8-0.1,1.2-0.1
					C89.4,54,89.4,53.8,89.3,53.6z"/>
				<path class="st25" d="M77,54.8c0,0.2,0,0.4,0.1,0.5c1-0.1,1.9-0.1,2.9-0.2c0-0.2,0-0.4-0.1-0.5C78.9,54.6,78,54.7,77,54.8z"/>
				<path class="st25" d="M82.3,54.3c0,0.2,0,0.4,0.1,0.5c0.3,0,0.5,0,0.8-0.1c0-0.2,0-0.4-0.1-0.5C82.8,54.3,82.6,54.3,82.3,54.3z"
					/>
				<path class="st25" d="M80.5,54.5c0,0.2,0,0.4,0.1,0.5c0.4,0,0.9-0.1,1.3-0.1c0-0.2,0-0.4-0.1-0.5C81.3,54.4,80.9,54.5,80.5,54.5
					z"/>
				<path class="st25" d="M75,54.9c0,0.2,0,0.4,0,0.5c0.7,0,1.3-0.1,2-0.1c0-0.2,0-0.4-0.1-0.5C76.3,54.8,75.6,54.9,75,54.9z"/>
				<path class="st25" d="M83.1,54.3c0,0.2,0,0.4,0.1,0.5c0.9-0.1,1.8-0.2,2.8-0.3c0-0.2,0-0.4-0.1-0.5C85,54.1,84.1,54.2,83.1,54.3
					z"/>
				<path class="st25" d="M67.7,55.3c0,0.2,0,0.4,0,0.5c0.4,0,0.7,0,1.1-0.1c0-0.2,0-0.4,0-0.5C68.4,55.3,68,55.3,67.7,55.3z"/>
				<path class="st25" d="M41,55.8c0,0.2,0,0.4,0,0.5c0.6,0,1.3,0,1.9,0c0-0.2,0-0.4,0-0.5C42.2,55.8,41.6,55.8,41,55.8z"/>
				<path class="st25" d="M51.7,55.8c0,0.2,0,0.4,0,0.5c1.8,0,3.5,0,5.3-0.1c0-0.2,0-0.4,0-0.5C55.2,55.8,53.4,55.8,51.7,55.8z"/>
				<path class="st25" d="M62.4,55.6c0,0.2,0,0.4,0,0.5c0.2,0,0.4,0,0.5,0c0-0.2,0-0.4,0-0.5C62.8,55.6,62.6,55.6,62.4,55.6z"/>
				<path class="st25" d="M39.6,55.8c0,0.2,0,0.4,0,0.5c0.3,0,0.6,0,0.8,0c0-0.2,0-0.4,0-0.5C40.1,55.8,39.8,55.8,39.6,55.8z"/>
				<path class="st25" d="M46.3,55.9c0,0.2,0,0.4,0,0.5c0.8,0,1.6,0,2.4,0c0-0.2,0-0.4,0-0.5C47.9,55.9,47.1,55.9,46.3,55.9z"/>
				<path class="st25" d="M43.4,55.8c0,0.2,0,0.4,0,0.5c1,0,1.9,0,2.9,0c0-0.2,0-0.4,0-0.5C45.3,55.8,44.4,55.8,43.4,55.8z"/>
				<path class="st25" d="M48.8,55.9c0,0.2,0,0.4,0,0.5c0.8,0,1.6,0,2.3,0c0-0.2,0-0.4,0-0.5C50.3,55.8,49.6,55.9,48.8,55.9z"/>
				<path class="st25" d="M59.5,55.7c0,0.2,0,0.4,0,0.5c0.8,0,1.6,0,2.4-0.1c0-0.2,0-0.4,0-0.5C61,55.6,60.2,55.7,59.5,55.7z"/>
				<path class="st25" d="M66.1,55.4c0,0.2,0,0.4,0,0.5c0.5,0,1,0,1.5-0.1c0-0.2,0-0.4,0-0.5C67.1,55.4,66.6,55.4,66.1,55.4z"/>
				<path class="st25" d="M63,55.6c0,0.2,0,0.4,0,0.5c0.8,0,1.7-0.1,2.5-0.1c0-0.2,0-0.4,0-0.5C64.7,55.5,63.9,55.5,63,55.6z"/>
				<path class="st25" d="M57,55.7c0,0.2,0,0.4,0,0.5c0.8,0,1.6,0,2.4-0.1c0-0.2,0-0.4,0-0.5C58.6,55.7,57.8,55.7,57,55.7z"/>
			</g>
			<g>
				<g>
					<path class="st25" d="M90.9,61c0,0.1,0,0.2,0,0.3c0.4,0,0.8-0.1,1.2-0.1c0-0.1,0-0.2,0-0.3C91.7,60.9,91.3,60.9,90.9,61z"/>
					<path class="st25" d="M77,62c0,0.1,0,0.2,0,0.3c0.2,0,0.4,0,0.6,0c0-0.1,0-0.2,0-0.3C77.5,62,77.3,62,77,62z"/>
					<path class="st25" d="M70.7,62.4c0,0.1,0,0.2,0,0.3c1.9-0.1,3.8-0.2,5.7-0.3c0-0.1,0-0.2,0-0.3C74.5,62.2,72.6,62.3,70.7,62.4z
						"/>
					<path class="st25" d="M94.1,60.6c-0.5,0-0.9,0.1-1.4,0.1c0,0.1,0,0.2,0,0.3c0.5,0,0.9-0.1,1.4-0.1
						C94.2,60.9,94.2,60.8,94.1,60.6z"/>
					<path class="st25" d="M80.1,61.8c0,0.1,0,0.2,0,0.3c1.1-0.1,2.2-0.2,3.3-0.2c0-0.1,0-0.2,0-0.3C82.3,61.7,81.2,61.8,80.1,61.8z
						"/>
					<path class="st25" d="M86.1,61.4c0,0.1,0,0.2,0,0.3c0.3,0,0.6-0.1,0.9-0.1c0-0.1,0-0.2,0-0.3C86.7,61.3,86.4,61.4,86.1,61.4z"
						/>
					<path class="st25" d="M84,61.6c0,0.1,0,0.2,0,0.3c0.5,0,1-0.1,1.5-0.1c0-0.1,0-0.2,0-0.3C85,61.5,84.5,61.5,84,61.6z"/>
					<path class="st25" d="M77.7,62c0,0.1,0,0.2,0,0.3c0.7,0,1.5-0.1,2.2-0.1c0-0.1,0-0.2,0-0.3C79.2,61.9,78.5,62,77.7,62z"/>
					<path class="st25" d="M87.1,61.3c0,0.1,0,0.2,0,0.3c1-0.1,2.1-0.2,3.1-0.3c0-0.1,0-0.2,0-0.3C89.2,61.1,88.1,61.2,87.1,61.3z"
						/>
					<path class="st25" d="M69.4,62.5c0,0.1,0,0.2,0,0.3c0.4,0,0.8,0,1.2-0.1c0-0.1,0-0.2,0-0.3C70.2,62.4,69.8,62.4,69.4,62.5z"/>
					<path class="st25" d="M39,62.8c0,0.1,0,0.2,0,0.3c0.7,0,1.4,0,2.1,0c0-0.1,0-0.2,0-0.3C40.4,62.9,39.7,62.9,39,62.8z"/>
					<path class="st25" d="M51.2,62.9c0,0.1,0,0.2,0,0.3c2,0,4,0,6-0.1c0-0.1,0-0.2,0-0.3C55.2,62.9,53.2,62.9,51.2,62.9z"/>
					<path class="st25" d="M63.4,62.7c0,0.1,0,0.2,0,0.3c0.2,0,0.4,0,0.6,0c0-0.1,0-0.2,0-0.3C63.8,62.7,63.6,62.7,63.4,62.7z"/>
					<path class="st25" d="M37.4,62.8c0,0.1,0,0.2,0,0.3c0.3,0,0.6,0,1,0c0-0.1,0-0.2,0-0.3C38,62.8,37.7,62.8,37.4,62.8z"/>
					<path class="st25" d="M45.1,62.9c0,0.1,0,0.2,0,0.3c0.9,0,1.8,0,2.7,0c0-0.1,0-0.2,0-0.3C46.9,62.9,46,62.9,45.1,62.9z"/>
					<path class="st25" d="M41.8,62.9c0,0.1,0,0.2,0,0.3c1.1,0,2.2,0,3.2,0c0-0.1,0-0.2,0-0.3C44,62.9,42.9,62.9,41.8,62.9z"/>
					<path class="st25" d="M47.9,62.9c0,0.1,0,0.2,0,0.3c0.9,0,1.8,0,2.7,0c0-0.1,0-0.2,0-0.3C49.7,62.9,48.8,62.9,47.9,62.9z"/>
					<path class="st25" d="M60.1,62.8c0,0.1,0,0.2,0,0.3c0.9,0,1.8,0,2.7-0.1c0-0.1,0-0.2,0-0.3C61.9,62.8,61,62.8,60.1,62.8z"/>
					<path class="st25" d="M67.7,62.6c0,0.1,0,0.2,0,0.3c0.6,0,1.1,0,1.7-0.1c0-0.1,0-0.2,0-0.3C68.8,62.5,68.2,62.5,67.7,62.6z"/>
					<path class="st25" d="M64.1,62.7c0,0.1,0,0.2,0,0.3c0.9,0,1.9-0.1,2.8-0.1c0-0.1,0-0.2,0-0.3C66,62.6,65.1,62.6,64.1,62.7z"/>
					<path class="st25" d="M57.3,62.9c0,0.1,0,0.2,0,0.3c0.9,0,1.8,0,2.7-0.1c0-0.1,0-0.2,0-0.3C59.1,62.8,58.2,62.8,57.3,62.9z"/>
				</g>
				<g>
					<path class="st25" d="M90.7,65.7c0,0.1,0,0.2,0,0.3c0.4,0,0.8-0.1,1.2-0.1c0-0.1,0-0.2,0-0.3C91.6,65.7,91.1,65.7,90.7,65.7z"
						/>
					<path class="st25" d="M76.9,66.8c0,0.1,0,0.2,0,0.3c0.2,0,0.4,0,0.6,0c0-0.1,0-0.2,0-0.3C77.3,66.8,77.1,66.8,76.9,66.8z"/>
					<path class="st25" d="M70.6,67.2c0,0.1,0,0.2,0,0.3c1.9-0.1,3.8-0.2,5.7-0.3c0-0.1,0-0.2,0-0.3C74.4,67,72.5,67.1,70.6,67.2z"
						/>
					<path class="st25" d="M94,65.4c-0.5,0-0.9,0.1-1.4,0.1c0,0.1,0,0.2,0,0.3c0.5,0,0.9-0.1,1.4-0.1C94,65.6,94,65.5,94,65.4z"/>
					<path class="st25" d="M80,66.6c0,0.1,0,0.2,0,0.3c1.1-0.1,2.2-0.2,3.3-0.2c0-0.1,0-0.2,0-0.3C82.1,66.5,81.1,66.5,80,66.6z"/>
					<path class="st25" d="M86,66.2c0,0.1,0,0.2,0,0.3c0.3,0,0.6,0,0.9-0.1c0-0.1,0-0.2,0-0.3C86.6,66.1,86.3,66.1,86,66.2z"/>
					<path class="st25" d="M83.9,66.3c0,0.1,0,0.2,0,0.3c0.5,0,1-0.1,1.5-0.1c0-0.1,0-0.2,0-0.3C84.9,66.3,84.4,66.3,83.9,66.3z"/>
					<path class="st25" d="M77.6,66.8c0,0.1,0,0.2,0,0.3c0.7,0,1.5-0.1,2.2-0.1c0-0.1,0-0.2,0-0.3C79.1,66.7,78.4,66.7,77.6,66.8z"
						/>
					<path class="st25" d="M87,66.1c0,0.1,0,0.2,0,0.3c1-0.1,2.1-0.2,3.1-0.3c0-0.1,0-0.2,0-0.3C89,65.9,88,66,87,66.1z"/>
					<path class="st25" d="M69.3,67.2c0,0.1,0,0.2,0,0.3c0.4,0,0.8,0,1.2-0.1c0-0.1,0-0.2,0-0.3C70.1,67.2,69.7,67.2,69.3,67.2z"/>
					<path class="st25" d="M38.9,67.6c0,0.1,0,0.2,0,0.3c0.7,0,1.4,0,2.1,0c0-0.1,0-0.2,0-0.3C40.3,67.6,39.6,67.6,38.9,67.6z"/>
					<path class="st25" d="M51.1,67.7c0,0.1,0,0.2,0,0.3c2,0,4,0,6-0.1c0-0.1,0-0.2,0-0.3C55.1,67.7,53.1,67.7,51.1,67.7z"/>
					<path class="st25" d="M63.3,67.5c0,0.1,0,0.2,0,0.3c0.2,0,0.4,0,0.6,0c0-0.1,0-0.2,0-0.3C63.7,67.5,63.5,67.5,63.3,67.5z"/>
					<path class="st25" d="M37.3,67.6c0,0.1,0,0.2,0,0.3c0.3,0,0.6,0,1,0c0-0.1,0-0.2,0-0.3C37.9,67.6,37.6,67.6,37.3,67.6z"/>
					<path class="st25" d="M45,67.7c0,0.1,0,0.2,0,0.3c0.9,0,1.8,0,2.7,0c0-0.1,0-0.2,0-0.3C46.8,67.7,45.9,67.7,45,67.7z"/>
					<path class="st25" d="M41.7,67.7c0,0.1,0,0.2,0,0.3c1.1,0,2.2,0,3.2,0c0-0.1,0-0.2,0-0.3C43.8,67.7,42.8,67.7,41.7,67.7z"/>
					<path class="st25" d="M47.8,67.7c0,0.1,0,0.2,0,0.3c0.9,0,1.8,0,2.7,0c0-0.1,0-0.2,0-0.3C49.6,67.7,48.7,67.7,47.8,67.7z"/>
					<path class="st25" d="M60,67.6c0,0.1,0,0.2,0,0.3c0.9,0,1.8,0,2.7-0.1c0-0.1,0-0.2,0-0.3C61.8,67.5,60.9,67.6,60,67.6z"/>
					<path class="st25" d="M67.5,67.3c0,0.1,0,0.2,0,0.3c0.6,0,1.1,0,1.7-0.1c0-0.1,0-0.2,0-0.3C68.7,67.3,68.1,67.3,67.5,67.3z"/>
					<path class="st25" d="M64,67.5c0,0.1,0,0.2,0,0.3c0.9,0,1.9-0.1,2.9-0.1c0-0.1,0-0.2,0-0.3C65.9,67.4,65,67.4,64,67.5z"/>
					<path class="st25" d="M57.2,67.6c0,0.1,0,0.2,0,0.3c0.9,0,1.8,0,2.7-0.1c0-0.1,0-0.2,0-0.3C59,67.6,58.1,67.6,57.2,67.6z"/>
				</g>
				<g>
					<path class="st25" d="M90.8,63.4c0,0.1,0,0.2,0,0.3c0.4,0,0.8-0.1,1.2-0.1c0-0.1,0-0.2,0-0.3C91.6,63.3,91.2,63.3,90.8,63.4z"
						/>
					<path class="st25" d="M77,64.4c0,0.1,0,0.2,0,0.3c0.2,0,0.4,0,0.6,0c0-0.1,0-0.2,0-0.3C77.4,64.4,77.2,64.4,77,64.4z"/>
					<path class="st25" d="M70.7,64.8c0,0.1,0,0.2,0,0.3c1.9-0.1,3.8-0.2,5.7-0.3c0-0.1,0-0.2,0-0.3C74.4,64.6,72.6,64.7,70.7,64.8z
						"/>
					<path class="st25" d="M94.1,63c-0.5,0.1-0.9,0.1-1.4,0.2c0,0.1,0,0.2,0,0.3c0.5,0,0.9-0.1,1.4-0.1C94.1,63.2,94.1,63.1,94.1,63
						z"/>
					<path class="st25" d="M80,64.2c0,0.1,0,0.2,0,0.3c1.1-0.1,2.2-0.2,3.3-0.2c0-0.1,0-0.2,0-0.3C82.2,64.1,81.1,64.2,80,64.2z"/>
					<path class="st25" d="M86.1,63.8c0,0.1,0,0.2,0,0.3c0.3,0,0.6-0.1,0.9-0.1c0-0.1,0-0.2,0-0.3C86.6,63.7,86.4,63.8,86.1,63.8z"
						/>
					<path class="st25" d="M83.9,63.9c0,0.1,0,0.2,0,0.3c0.5,0,1-0.1,1.5-0.1c0-0.1,0-0.2,0-0.3C84.9,63.9,84.4,63.9,83.9,63.9z"/>
					<path class="st25" d="M77.7,64.4c0,0.1,0,0.2,0,0.3c0.7,0,1.5-0.1,2.2-0.2c0-0.1,0-0.2,0-0.3C79.2,64.3,78.4,64.3,77.7,64.4z"
						/>
					<path class="st25" d="M87,63.7c0,0.1,0,0.2,0,0.3c1.1-0.1,2.1-0.2,3.2-0.3c0-0.1,0-0.2,0-0.3C89.1,63.5,88.1,63.6,87,63.7z"/>
					<path class="st25" d="M69.4,64.9c0,0.1,0,0.2,0,0.3c0.4,0,0.8,0,1.2-0.1c0-0.1,0-0.2,0-0.3C70.2,64.8,69.8,64.8,69.4,64.9z"/>
					<path class="st25" d="M38.9,65.2c0,0.1,0,0.2,0,0.3c0.7,0,1.4,0,2.1,0c0-0.1,0-0.2,0-0.3C40.4,65.3,39.7,65.2,38.9,65.2z"/>
					<path class="st25" d="M51.2,65.3c0,0.1,0,0.2,0,0.3c2,0,4,0,6-0.1c0-0.1,0-0.2,0-0.3C55.2,65.3,53.2,65.3,51.2,65.3z"/>
					<path class="st25" d="M63.4,65.1c0,0.1,0,0.2,0,0.3c0.2,0,0.4,0,0.6,0c0-0.1,0-0.2,0-0.3C63.8,65.1,63.6,65.1,63.4,65.1z"/>
					<path class="st25" d="M37.3,65.2c0,0.1,0,0.2,0,0.3c0.3,0,0.6,0,1,0c0-0.1,0-0.2,0-0.3C38,65.2,37.7,65.2,37.3,65.2z"/>
					<path class="st25" d="M45.1,65.3c0,0.1,0,0.2,0,0.3c0.9,0,1.8,0,2.7,0c0-0.1,0-0.2,0-0.3C46.9,65.3,46,65.3,45.1,65.3z"/>
					<path class="st25" d="M41.7,65.3c0,0.1,0,0.2,0,0.3c1.1,0,2.2,0,3.3,0c0-0.1,0-0.2,0-0.3C43.9,65.3,42.8,65.3,41.7,65.3z"/>
					<path class="st25" d="M47.8,65.3c0,0.1,0,0.2,0,0.3c0.9,0,1.8,0,2.7,0c0-0.1,0-0.2,0-0.3C49.6,65.3,48.7,65.3,47.8,65.3z"/>
					<path class="st25" d="M60,65.2c0,0.1,0,0.2,0,0.3c0.9,0,1.8-0.1,2.7-0.1c0-0.1,0-0.2,0-0.3C61.8,65.1,60.9,65.2,60,65.2z"/>
					<path class="st25" d="M67.6,64.9c0,0.1,0,0.2,0,0.3c0.6,0,1.1,0,1.7-0.1c0-0.1,0-0.2,0-0.3C68.7,64.9,68.2,64.9,67.6,64.9z"/>
					<path class="st25" d="M64.1,65.1c0,0.1,0,0.2,0,0.3c0.9,0,1.9-0.1,2.9-0.1c0-0.1,0-0.2,0-0.3C66,65,65,65,64.1,65.1z"/>
					<path class="st25" d="M57.2,65.2c0,0.1,0,0.2,0,0.3c0.9,0,1.8,0,2.7-0.1c0-0.1,0-0.2,0-0.3C59,65.2,58.1,65.2,57.2,65.2z"/>
				</g>
			</g>
			<g>
				<g>
					<path class="st25" d="M90.9,68c0,0.1,0,0.2,0,0.3c0.4,0,0.8-0.1,1.2-0.1c0-0.1,0-0.2,0-0.3C91.7,67.9,91.3,67.9,90.9,68z"/>
					<path class="st25" d="M77,69c0,0.1,0,0.2,0,0.3c0.2,0,0.4,0,0.6,0c0-0.1,0-0.2,0-0.3C77.5,69,77.3,69,77,69z"/>
					<path class="st25" d="M70.7,69.4c0,0.1,0,0.2,0,0.3c1.9-0.1,3.8-0.2,5.7-0.3c0-0.1,0-0.2,0-0.3C74.5,69.2,72.6,69.3,70.7,69.4z
						"/>
					<path class="st25" d="M94.1,67.6c-0.5,0-0.9,0.1-1.4,0.1c0,0.1,0,0.2,0,0.3c0.5,0,0.9-0.1,1.4-0.1
						C94.2,67.9,94.2,67.8,94.1,67.6z"/>
					<path class="st25" d="M80.1,68.8c0,0.1,0,0.2,0,0.3c1.1-0.1,2.2-0.2,3.3-0.2c0-0.1,0-0.2,0-0.3C82.3,68.7,81.2,68.8,80.1,68.8z
						"/>
					<path class="st25" d="M86.1,68.4c0,0.1,0,0.2,0,0.3c0.3,0,0.6-0.1,0.9-0.1c0-0.1,0-0.2,0-0.3C86.7,68.3,86.4,68.4,86.1,68.4z"
						/>
					<path class="st25" d="M84,68.6c0,0.1,0,0.2,0,0.3c0.5,0,1-0.1,1.5-0.1c0-0.1,0-0.2,0-0.3C85,68.5,84.5,68.5,84,68.6z"/>
					<path class="st25" d="M77.7,69c0,0.1,0,0.2,0,0.3c0.7,0,1.5-0.1,2.2-0.1c0-0.1,0-0.2,0-0.3C79.2,68.9,78.5,69,77.7,69z"/>
					<path class="st25" d="M87.1,68.3c0,0.1,0,0.2,0,0.3c1-0.1,2.1-0.2,3.1-0.3c0-0.1,0-0.2,0-0.3C89.2,68.1,88.1,68.2,87.1,68.3z"
						/>
					<path class="st25" d="M69.4,69.5c0,0.1,0,0.2,0,0.3c0.4,0,0.8,0,1.2-0.1c0-0.1,0-0.2,0-0.3C70.2,69.4,69.8,69.4,69.4,69.5z"/>
					<path class="st25" d="M39,69.8c0,0.1,0,0.2,0,0.3c0.7,0,1.4,0,2.1,0c0-0.1,0-0.2,0-0.3C40.4,69.9,39.7,69.9,39,69.8z"/>
					<path class="st25" d="M51.2,69.9c0,0.1,0,0.2,0,0.3c2,0,4,0,6-0.1c0-0.1,0-0.2,0-0.3C55.2,69.9,53.2,69.9,51.2,69.9z"/>
					<path class="st25" d="M63.4,69.7c0,0.1,0,0.2,0,0.3c0.2,0,0.4,0,0.6,0c0-0.1,0-0.2,0-0.3C63.8,69.7,63.6,69.7,63.4,69.7z"/>
					<path class="st25" d="M37.4,69.8c0,0.1,0,0.2,0,0.3c0.3,0,0.6,0,1,0c0-0.1,0-0.2,0-0.3C38,69.8,37.7,69.8,37.4,69.8z"/>
					<path class="st25" d="M45.1,69.9c0,0.1,0,0.2,0,0.3c0.9,0,1.8,0,2.7,0c0-0.1,0-0.2,0-0.3C46.9,69.9,46,69.9,45.1,69.9z"/>
					<path class="st25" d="M41.8,69.9c0,0.1,0,0.2,0,0.3c1.1,0,2.2,0,3.2,0c0-0.1,0-0.2,0-0.3C44,69.9,42.9,69.9,41.8,69.9z"/>
					<path class="st25" d="M47.9,69.9c0,0.1,0,0.2,0,0.3c0.9,0,1.8,0,2.7,0c0-0.1,0-0.2,0-0.3C49.7,69.9,48.8,69.9,47.9,69.9z"/>
					<path class="st25" d="M60.1,69.8c0,0.1,0,0.2,0,0.3c0.9,0,1.8,0,2.7-0.1c0-0.1,0-0.2,0-0.3C61.9,69.8,61,69.8,60.1,69.8z"/>
					<path class="st25" d="M67.7,69.6c0,0.1,0,0.2,0,0.3c0.6,0,1.1,0,1.7-0.1c0-0.1,0-0.2,0-0.3C68.8,69.5,68.2,69.5,67.7,69.6z"/>
					<path class="st25" d="M64.1,69.7c0,0.1,0,0.2,0,0.3c0.9,0,1.9-0.1,2.8-0.1c0-0.1,0-0.2,0-0.3C66,69.6,65.1,69.6,64.1,69.7z"/>
					<path class="st25" d="M57.3,69.9c0,0.1,0,0.2,0,0.3c0.9,0,1.8,0,2.7-0.1c0-0.1,0-0.2,0-0.3C59.1,69.8,58.2,69.8,57.3,69.9z"/>
				</g>
				<g>
					<path class="st25" d="M90.7,72.7c0,0.1,0,0.2,0,0.3c0.4,0,0.8-0.1,1.2-0.1c0-0.1,0-0.2,0-0.3C91.6,72.7,91.1,72.7,90.7,72.7z"
						/>
					<path class="st25" d="M76.9,73.8c0,0.1,0,0.2,0,0.3c0.2,0,0.4,0,0.6,0c0-0.1,0-0.2,0-0.3C77.3,73.8,77.1,73.8,76.9,73.8z"/>
					<path class="st25" d="M70.6,74.2c0,0.1,0,0.2,0,0.3c1.9-0.1,3.8-0.2,5.7-0.3c0-0.1,0-0.2,0-0.3C74.4,74,72.5,74.1,70.6,74.2z"
						/>
					<path class="st25" d="M94,72.4c-0.5,0-0.9,0.1-1.4,0.1c0,0.1,0,0.2,0,0.3c0.5,0,0.9-0.1,1.4-0.1C94,72.6,94,72.5,94,72.4z"/>
					<path class="st25" d="M80,73.6c0,0.1,0,0.2,0,0.3c1.1-0.1,2.2-0.2,3.3-0.2c0-0.1,0-0.2,0-0.3C82.1,73.5,81.1,73.5,80,73.6z"/>
					<path class="st25" d="M86,73.2c0,0.1,0,0.2,0,0.3c0.3,0,0.6,0,0.9-0.1c0-0.1,0-0.2,0-0.3C86.6,73.1,86.3,73.1,86,73.2z"/>
					<path class="st25" d="M83.9,73.3c0,0.1,0,0.2,0,0.3c0.5,0,1-0.1,1.5-0.1c0-0.1,0-0.2,0-0.3C84.9,73.3,84.4,73.3,83.9,73.3z"/>
					<path class="st25" d="M77.6,73.8c0,0.1,0,0.2,0,0.3c0.7,0,1.5-0.1,2.2-0.1c0-0.1,0-0.2,0-0.3C79.1,73.7,78.4,73.7,77.6,73.8z"
						/>
					<path class="st25" d="M87,73.1c0,0.1,0,0.2,0,0.3c1-0.1,2.1-0.2,3.1-0.3c0-0.1,0-0.2,0-0.3C89,72.9,88,73,87,73.1z"/>
					<path class="st25" d="M69.3,74.2c0,0.1,0,0.2,0,0.3c0.4,0,0.8,0,1.2-0.1c0-0.1,0-0.2,0-0.3C70.1,74.2,69.7,74.2,69.3,74.2z"/>
					<path class="st25" d="M38.9,74.6c0,0.1,0,0.2,0,0.3c0.7,0,1.4,0,2.1,0c0-0.1,0-0.2,0-0.3C40.3,74.6,39.6,74.6,38.9,74.6z"/>
					<path class="st25" d="M51.1,74.7c0,0.1,0,0.2,0,0.3c2,0,4,0,6-0.1c0-0.1,0-0.2,0-0.3C55.1,74.7,53.1,74.7,51.1,74.7z"/>
					<path class="st25" d="M63.3,74.5c0,0.1,0,0.2,0,0.3c0.2,0,0.4,0,0.6,0c0-0.1,0-0.2,0-0.3C63.7,74.5,63.5,74.5,63.3,74.5z"/>
					<path class="st25" d="M37.3,74.6c0,0.1,0,0.2,0,0.3c0.3,0,0.6,0,1,0c0-0.1,0-0.2,0-0.3C37.9,74.6,37.6,74.6,37.3,74.6z"/>
					<path class="st25" d="M45,74.7c0,0.1,0,0.2,0,0.3c0.9,0,1.8,0,2.7,0c0-0.1,0-0.2,0-0.3C46.8,74.7,45.9,74.7,45,74.7z"/>
					<path class="st25" d="M41.7,74.7c0,0.1,0,0.2,0,0.3c1.1,0,2.2,0,3.2,0c0-0.1,0-0.2,0-0.3C43.8,74.7,42.8,74.7,41.7,74.7z"/>
					<path class="st25" d="M47.8,74.7c0,0.1,0,0.2,0,0.3c0.9,0,1.8,0,2.7,0c0-0.1,0-0.2,0-0.3C49.6,74.7,48.7,74.7,47.8,74.7z"/>
					<path class="st25" d="M60,74.6c0,0.1,0,0.2,0,0.3c0.9,0,1.8,0,2.7-0.1c0-0.1,0-0.2,0-0.3C61.8,74.5,60.9,74.6,60,74.6z"/>
					<path class="st25" d="M67.5,74.3c0,0.1,0,0.2,0,0.3c0.6,0,1.1,0,1.7-0.1c0-0.1,0-0.2,0-0.3C68.7,74.3,68.1,74.3,67.5,74.3z"/>
					<path class="st25" d="M64,74.5c0,0.1,0,0.2,0,0.3c0.9,0,1.9-0.1,2.9-0.1c0-0.1,0-0.2,0-0.3C65.9,74.4,65,74.4,64,74.5z"/>
					<path class="st25" d="M57.2,74.6c0,0.1,0,0.2,0,0.3c0.9,0,1.8,0,2.7-0.1c0-0.1,0-0.2,0-0.3C59,74.6,58.1,74.6,57.2,74.6z"/>
				</g>
				<g>
					<path class="st25" d="M90.8,70.4c0,0.1,0,0.2,0,0.3c0.4,0,0.8-0.1,1.2-0.1c0-0.1,0-0.2,0-0.3C91.6,70.3,91.2,70.3,90.8,70.4z"
						/>
					<path class="st25" d="M77,71.4c0,0.1,0,0.2,0,0.3c0.2,0,0.4,0,0.6,0c0-0.1,0-0.2,0-0.3C77.4,71.4,77.2,71.4,77,71.4z"/>
					<path class="st25" d="M70.7,71.8c0,0.1,0,0.2,0,0.3c1.9-0.1,3.8-0.2,5.7-0.3c0-0.1,0-0.2,0-0.3C74.4,71.6,72.6,71.7,70.7,71.8z
						"/>
					<path class="st25" d="M94.1,70c-0.5,0.1-0.9,0.1-1.4,0.2c0,0.1,0,0.2,0,0.3c0.5,0,0.9-0.1,1.4-0.1C94.1,70.2,94.1,70.1,94.1,70
						z"/>
					<path class="st25" d="M80,71.2c0,0.1,0,0.2,0,0.3c1.1-0.1,2.2-0.2,3.3-0.2c0-0.1,0-0.2,0-0.3C82.2,71.1,81.1,71.2,80,71.2z"/>
					<path class="st25" d="M86.1,70.8c0,0.1,0,0.2,0,0.3c0.3,0,0.6-0.1,0.9-0.1c0-0.1,0-0.2,0-0.3C86.6,70.7,86.4,70.8,86.1,70.8z"
						/>
					<path class="st25" d="M83.9,70.9c0,0.1,0,0.2,0,0.3c0.5,0,1-0.1,1.5-0.1c0-0.1,0-0.2,0-0.3C84.9,70.9,84.4,70.9,83.9,70.9z"/>
					<path class="st25" d="M77.7,71.4c0,0.1,0,0.2,0,0.3c0.7,0,1.5-0.1,2.2-0.2c0-0.1,0-0.2,0-0.3C79.2,71.3,78.4,71.3,77.7,71.4z"
						/>
					<path class="st25" d="M87,70.7c0,0.1,0,0.2,0,0.3c1.1-0.1,2.1-0.2,3.2-0.3c0-0.1,0-0.2,0-0.3C89.1,70.5,88.1,70.6,87,70.7z"/>
					<path class="st25" d="M69.4,71.9c0,0.1,0,0.2,0,0.3c0.4,0,0.8,0,1.2-0.1c0-0.1,0-0.2,0-0.3C70.2,71.8,69.8,71.8,69.4,71.9z"/>
					<path class="st25" d="M38.9,72.2c0,0.1,0,0.2,0,0.3c0.7,0,1.4,0,2.1,0c0-0.1,0-0.2,0-0.3C40.4,72.3,39.7,72.2,38.9,72.2z"/>
					<path class="st25" d="M51.2,72.3c0,0.1,0,0.2,0,0.3c2,0,4,0,6-0.1c0-0.1,0-0.2,0-0.3C55.2,72.3,53.2,72.3,51.2,72.3z"/>
					<path class="st25" d="M63.4,72.1c0,0.1,0,0.2,0,0.3c0.2,0,0.4,0,0.6,0c0-0.1,0-0.2,0-0.3C63.8,72.1,63.6,72.1,63.4,72.1z"/>
					<path class="st25" d="M37.3,72.2c0,0.1,0,0.2,0,0.3c0.3,0,0.6,0,1,0c0-0.1,0-0.2,0-0.3C38,72.2,37.7,72.2,37.3,72.2z"/>
					<path class="st25" d="M45.1,72.3c0,0.1,0,0.2,0,0.3c0.9,0,1.8,0,2.7,0c0-0.1,0-0.2,0-0.3C46.9,72.3,46,72.3,45.1,72.3z"/>
					<path class="st25" d="M41.7,72.3c0,0.1,0,0.2,0,0.3c1.1,0,2.2,0,3.3,0c0-0.1,0-0.2,0-0.3C43.9,72.3,42.8,72.3,41.7,72.3z"/>
					<path class="st25" d="M47.8,72.3c0,0.1,0,0.2,0,0.3c0.9,0,1.8,0,2.7,0c0-0.1,0-0.2,0-0.3C49.6,72.3,48.7,72.3,47.8,72.3z"/>
					<path class="st25" d="M60,72.2c0,0.1,0,0.2,0,0.3c0.9,0,1.8-0.1,2.7-0.1c0-0.1,0-0.2,0-0.3C61.8,72.1,60.9,72.2,60,72.2z"/>
					<path class="st25" d="M67.6,71.9c0,0.1,0,0.2,0,0.3c0.6,0,1.1,0,1.7-0.1c0-0.1,0-0.2,0-0.3C68.7,71.9,68.2,71.9,67.6,71.9z"/>
					<path class="st25" d="M64.1,72.1c0,0.1,0,0.2,0,0.3c0.9,0,1.9-0.1,2.9-0.1c0-0.1,0-0.2,0-0.3C66,72,65,72,64.1,72.1z"/>
					<path class="st25" d="M57.2,72.2c0,0.1,0,0.2,0,0.3c0.9,0,1.8,0,2.7-0.1c0-0.1,0-0.2,0-0.3C59,72.2,58.1,72.2,57.2,72.2z"/>
				</g>
			</g>
		</g>
	</g>
</g>
</svg>
