<?xml version="1.0" encoding="utf-8"?>
<!-- Generator: Adobe Illustrator 28.0.0, SVG Export Plug-In . SVG Version: 6.00 Build 0)  -->
<svg version="1.1" id="Laag_1" xmlns="http://www.w3.org/2000/svg" xmlns:xlink="http://www.w3.org/1999/xlink" x="0px" y="0px"
	 viewBox="0 0 60 60" style="enable-background:new 0 0 60 60;" xml:space="preserve">
<style type="text/css">
	.Slagschaduw{fill:none;}
	.Buitenste_x0020_gloed_x0020_5_x0020_pt{fill:none;}
	.Blauw_x0020_neon{fill:none;stroke:#8AACDA;stroke-width:7;stroke-linecap:round;stroke-linejoin:round;}
	.Hooglicht_x002C__x0020_chroom{fill:url(#SVGID_1_);stroke:#FFFFFF;stroke-width:0.3629;stroke-miterlimit:1;}
	.Jive_AS{fill:#FFDD00;}
	.Alyssa_AS{fill:#A6D0E4;}
	.st0{fill:#FFFFFF;}
</style>
<linearGradient id="SVGID_1_" gradientUnits="userSpaceOnUse" x1="-45" y1="-45" x2="-45" y2="-46">
	<stop  offset="0" style="stop-color:#656565"/>
	<stop  offset="0.618" style="stop-color:#1B1B1B"/>
	<stop  offset="0.6292" style="stop-color:#545454"/>
	<stop  offset="0.9831" style="stop-color:#3E3E3E"/>
</linearGradient>
<g>
	<path class="st0" d="M49.9,0H10C8.9,0,8,0.9,8,2V58c0,1.1,0.9,2,2,2h40c1.1,0,2-0.9,2-2V2C51.9,0.8,51.1,0,49.9,0z M24,15.9h4v-4
		c0-1.1,0.9-2,2-2c1.1,0,2,0.9,2,2v4h4c1.1,0,2,0.9,2,2c0,1.1-0.9,2-2,2h-4v4c0,1.1-0.9,2-2,2c-1.1,0-2-0.9-2-2v-4h-4
		c-1.1,0-2-0.9-2-2C22,16.9,22.9,15.9,24,15.9z M30,51.9H18c-1.1,0-2-0.9-2-2s0.9-2,2-2h12c1.1,0,2,0.9,2,2S31.1,51.9,30,51.9z
		 M42,44H18c-1.1,0-2-0.9-2-2s0.9-2,2-2h24c1.1,0,2,0.9,2,2S43.1,44,42,44z M42,35.9H18c-1.1,0-2-0.9-2-2s0.9-2,2-2h24
		c1.1,0,2,0.9,2,2S43.1,35.9,42,35.9z"/>
</g>
</svg>
