<?xml version="1.0" encoding="utf-8"?>
<!-- Generator: Adobe Illustrator 28.0.0, SVG Export Plug-In . SVG Version: 6.00 Build 0)  -->
<svg version="1.1" id="Laag_1" xmlns="http://www.w3.org/2000/svg" xmlns:xlink="http://www.w3.org/1999/xlink" x="0px" y="0px"
	 viewBox="0 0 150 150" style="enable-background:new 0 0 150 150;" xml:space="preserve">
<style type="text/css">
	.Slagschaduw{fill:none;}
	.Buitenste_x0020_gloed_x0020_5_x0020_pt{fill:none;}
	.Blauw_x0020_neon{fill:none;stroke:#8AACDA;stroke-width:7;stroke-linecap:round;stroke-linejoin:round;}
	.Hooglicht_x002C__x0020_chroom{fill:url(#SVGID_1_);stroke:#FFFFFF;stroke-width:0.3629;stroke-miterlimit:1;}
	.Jive_AS{fill:#FFDD00;}
	.Alyssa_AS{fill:#A6D0E4;}
	.st0{display:none;}
	.st1{display:inline;fill:#063B59;}
	.st2{display:inline;}
	.st3{fill:#FFFFFF;}
	.st4{display:inline;fill:#F2F2F2;}
	.st5{fill-rule:evenodd;clip-rule:evenodd;fill:#063B59;}
	.st6{fill:#666666;}
	.st7{fill:#063B59;}
	.st8{fill:#F2F2F2;}
	.st9{fill-rule:evenodd;clip-rule:evenodd;fill:#666666;}
</style>
<linearGradient id="SVGID_1_" gradientUnits="userSpaceOnUse" x1="0" y1="0" x2="6.123234e-17" y2="-1">
	<stop  offset="0" style="stop-color:#656565"/>
	<stop  offset="0.618" style="stop-color:#1B1B1B"/>
	<stop  offset="0.6292" style="stop-color:#545454"/>
	<stop  offset="0.9831" style="stop-color:#3E3E3E"/>
</linearGradient>
<g id="stap_1" class="st0">
	<path class="st1" d="M150,77.3c0-6.9-13.8-16.3-21.8-21.2c-8.1-27-33.1-46.6-62.7-46.6C29.3,9.5,0,38.8,0,75
		c0,36.2,29.3,65.5,65.5,65.5c27.3,0,50.6-16.7,60.5-40.4C133.3,95.7,150,84.9,150,77.3z"/>
	<g class="st2">
		<path class="st3" d="M89.1,39.5H41.8c-1.3,0-2.4,1.1-2.4,2.4v66.3c0,1.3,1.1,2.4,2.4,2.4h47.4c1.3,0,2.4-1.1,2.4-2.4V41.9
			C91.5,40.5,90.5,39.5,89.1,39.5z M58.4,58.4h4.7v-4.7c0-1.3,1.1-2.4,2.4-2.4c1.3,0,2.4,1.1,2.4,2.4v4.7h4.7c1.3,0,2.4,1.1,2.4,2.4
			c0,1.3-1.1,2.4-2.4,2.4h-4.7v4.7c0,1.3-1.1,2.4-2.4,2.4c-1.3,0-2.4-1.1-2.4-2.4v-4.7h-4.7c-1.3,0-2.4-1.1-2.4-2.4
			C56,59.5,57.1,58.4,58.4,58.4z M65.5,101H51.3c-1.3,0-2.4-1.1-2.4-2.4s1.1-2.4,2.4-2.4h14.2c1.3,0,2.4,1.1,2.4,2.4
			S66.8,101,65.5,101z M79.7,91.6H51.3c-1.3,0-2.4-1.1-2.4-2.4s1.1-2.4,2.4-2.4h28.4c1.3,0,2.4,1.1,2.4,2.4S81,91.6,79.7,91.6z
			 M79.7,82.1H51.3c-1.3,0-2.4-1.1-2.4-2.4s1.1-2.4,2.4-2.4h28.4c1.3,0,2.4,1.1,2.4,2.4S81,82.1,79.7,82.1z"/>
	</g>
</g>
<g id="stap_2" class="st0">
	<path class="st4" d="M150,77.3c0-6.9-13.8-16.3-21.8-21.2c-8.1-27-33.1-46.6-62.7-46.6C29.3,9.5,0,38.8,0,75
		c0,36.2,29.3,65.5,65.5,65.5c27.3,0,50.6-16.7,60.5-40.4C133.3,95.7,150,84.9,150,77.3z"/>
	<g class="st2">
		<path class="st5" d="M65.5,40.2c-19.2,0-34.8,15.6-34.8,34.8s15.6,34.8,34.8,34.8s34.8-15.6,34.8-34.8S84.7,40.2,65.5,40.2z
			 M65.5,43.5C82.9,43.5,97,57.6,97,75s-14.1,31.5-31.5,31.5S34,92.4,34,75S48.1,43.5,65.5,43.5z M64.2,76.1
			c-0.3-0.3-0.4-0.7-0.4-1.1V55.1c0-0.9,0.7-1.7,1.7-1.7s1.7,0.7,1.7,1.7v19.2l13.6,13.6c0.6,0.6,0.6,1.7,0,2.3
			c-0.6,0.6-1.7,0.6-2.3,0C78.4,90.2,64.2,76.1,64.2,76.1z"/>
	</g>
</g>
<g class="st0">
	<path class="st4" d="M150,77.3c0-6.9-13.8-16.3-21.8-21.2c-8.1-27-33.1-46.6-62.7-46.6C29.3,9.5,0,38.8,0,75
		c0,36.2,29.3,65.5,65.5,65.5c27.3,0,50.6-16.7,60.5-40.4C133.3,95.7,150,84.9,150,77.3z"/>
	<g class="st2">
		<path class="st6" d="M55.1,57c-0.7,0.5-0.8,1.4-0.3,2.1c0.5,0.6,1.4,0.8,2.1,0.3c4-3,2-7.2,0.2-10.9c-1.5-3.1,0.4-4.6,0.8-4.8
			c0.7-0.4,0.9-1.3,0.5-2c-0.4-0.7-1.3-0.9-2-0.5c-1.6,1-4.1,4-1.9,8.6C56.8,54.6,56.7,55.8,55.1,57z"/>
		<path class="st6" d="M63.3,57c-0.7,0.5-0.8,1.4-0.3,2.1c0.5,0.6,1.4,0.8,2.1,0.3c4-3,2-7.2,0.2-10.9c-1.5-3.1,0.4-4.5,0.8-4.8
			c0.7-0.4,0.9-1.3,0.5-2c-0.4-0.7-1.3-0.9-2-0.5c-1.6,1-4.1,4-1.9,8.6C64.9,54.6,64.8,55.8,63.3,57z"/>
		<path class="st6" d="M71.5,57c-0.7,0.5-0.8,1.4-0.3,2.1c0.5,0.6,1.4,0.8,2.1,0.3c4-3,2-7.2,0.2-10.9c-1.5-3.1,0.4-4.6,0.8-4.8
			c0.7-0.4,0.9-1.3,0.5-2c-0.4-0.7-1.3-0.9-2-0.5c-1.6,1-4.1,4-1.9,8.6C73.1,54.6,73,55.8,71.5,57z"/>
		<path class="st7" d="M86.9,72.3h-1.3v-7.7c0-0.8-0.7-1.5-1.5-1.5c0,0,0,0,0,0H46c-0.8,0-1.5,0.7-1.5,1.5c0,0,0,0,0,0v32.9
			c0,6.5,5.3,11.7,11.8,11.7h17.5c6.5,0,11.7-5.2,11.8-11.7v-3.9h1.3c5.9,0,10.6-4.7,10.6-10.6C97.5,77.1,92.8,72.4,86.9,72.3z
			 M78.3,84.6c0,3.9-3.1,7.1-6.9,7.2c0.1,1.3,0.5,2.5,1,3.7l1,2.2l-2.1-1.1c-2.4-1.2-4.9-2.4-6.2-4.8h-5.8c-4,0-7.3-3.3-7.3-7.3
			v-4.3c0-4,3.3-7.3,7.3-7.3H71c4,0,7.3,3.3,7.3,7.3V84.6z M86.9,90.6h-1.3V75.2h1.3c4.2,0.1,7.6,3.5,7.7,7.7
			C94.6,87.1,91.2,90.5,86.9,90.6z"/>
	</g>
</g>
<g>
	<circle class="st8" cx="75" cy="75" r="65.5"/>
	<g transform="matrix(1,0,0,1,-432,-48)">
		<g>
			<path class="st5" d="M522.3,96.5H514v-4.2c0-0.8-0.6-1.4-1.4-1.4c-0.8,0-1.4,0.6-1.4,1.4v4.2h-8.4v-4.2c0-0.8-0.6-1.4-1.4-1.4
				c-0.8,0-1.4,0.6-1.4,1.4v4.2h-8.4v-4.2c0-0.8-0.6-1.4-1.4-1.4c-0.8,0-1.4,0.6-1.4,1.4v4.2h-7c-1.8,0-3.6,0.7-4.9,2
				c-1.3,1.3-2,3.1-2,4.9c0,10.7,0,33.9,0,44.6c0,1.8,0.7,3.6,2,4.9c1.3,1.3,3.1,2,4.9,2h37.8c1.1,0,2.2-0.4,3-1.2l15.1-15.1
				c0.8-0.8,1.2-1.8,1.2-3c0-2.8,0-32.3,0-32.3c0-1.8-0.7-3.6-2-4.9c-1.3-1.3-3.1-2-4.9-2h-7v-4.2c0-0.8-0.6-1.4-1.4-1.4
				c-0.8,0-1.4,0.6-1.4,1.4V96.5z M488.9,99.3h-7c-1.1,0-2.2,0.4-3,1.2c-0.8,0.8-1.2,1.8-1.2,3c0,10.7,0,33.9,0,44.6
				c0,1.1,0.4,2.2,1.2,3c0.8,0.8,1.8,1.2,3,1.2h36.2c0.8,0,1.4-0.6,1.4-1.4v-8.4c0-1.8,0.7-3.6,2-4.9c1.3-1.3,3.1-2,4.9-2h8.4
				c0.4,0,0.7-0.1,1-0.4c0.3-0.3,0.4-0.6,0.4-1c0-8,0-30.6,0-30.6c0-1.1-0.4-2.2-1.2-3c-0.8-0.8-1.8-1.2-3-1.2h-7v4.2
				c0,0.8-0.6,1.4-1.4,1.4c-0.8,0-1.4-0.6-1.4-1.4v-4.2H514v4.2c0,0.8-0.6,1.4-1.4,1.4c-0.8,0-1.4-0.6-1.4-1.4v-4.2h-8.4v4.2
				c0,0.8-0.6,1.4-1.4,1.4c-0.8,0-1.4-0.6-1.4-1.4v-4.2h-8.4v4.2c0,0.8-0.6,1.4-1.4,1.4c-0.8,0-1.4-0.6-1.4-1.4V99.3z M534.3,138.3
				h-7.8c-1.1,0-2.2,0.4-3,1.2c-0.8,0.8-1.2,1.8-1.2,3v7.8L534.3,138.3z"/>
			<g transform="matrix(1,0,0,1,0,2)">
				<path class="st9" d="M488.9,114.3c0-0.8-0.3-1.6-0.9-2.2c-0.6-0.6-1.4-0.9-2.2-0.9h-2.2c-0.8,0-1.6,0.3-2.2,0.9
					c-0.6,0.6-0.9,1.4-0.9,2.2v2.2c0,0.8,0.3,1.6,0.9,2.2c0.6,0.6,1.4,0.9,2.2,0.9h2.2c0.8,0,1.6-0.3,2.2-0.9
					c0.6-0.6,0.9-1.4,0.9-2.2V114.3z M486.1,114.3v2.2c0,0.1,0,0.1-0.1,0.2c-0.1,0.1-0.1,0.1-0.2,0.1h-2.2c-0.1,0-0.1,0-0.2-0.1
					c-0.1-0.1-0.1-0.1-0.1-0.2v-2.2c0-0.1,0-0.1,0.1-0.2c0.1-0.1,0.1-0.1,0.2-0.1h2.2c0.1,0,0.1,0,0.2,0.1
					C486.1,114.2,486.1,114.2,486.1,114.3z"/>
			</g>
			<g transform="matrix(1,0,0,1,0,10)">
				<path class="st9" d="M488.9,117.5c0-0.8-0.3-1.6-0.9-2.2c-0.6-0.6-1.4-0.9-2.2-0.9h-2.2c-0.8,0-1.6,0.3-2.2,0.9
					c-0.6,0.6-0.9,1.4-0.9,2.2v2.2c0,0.8,0.3,1.6,0.9,2.2c0.6,0.6,1.4,0.9,2.2,0.9h2.2c0.8,0,1.6-0.3,2.2-0.9
					c0.6-0.6,0.9-1.4,0.9-2.2V117.5z M486.1,117.5v2.2c0,0.1,0,0.1-0.1,0.2c-0.1,0.1-0.1,0.1-0.2,0.1h-2.2c-0.1,0-0.1,0-0.2-0.1
					c-0.1-0.1-0.1-0.1-0.1-0.2v-2.2c0-0.1,0-0.1,0.1-0.2c0.1-0.1,0.1-0.1,0.2-0.1h2.2c0.1,0,0.1,0,0.2,0.1
					C486.1,117.3,486.1,117.4,486.1,117.5z"/>
			</g>
			<g transform="matrix(1,0,0,1,0,18)">
				<path class="st9" d="M488.9,120.6c0-0.8-0.3-1.6-0.9-2.2c-0.6-0.6-1.4-0.9-2.2-0.9h-2.2c-0.8,0-1.6,0.3-2.2,0.9
					c-0.6,0.6-0.9,1.4-0.9,2.2v2.2c0,0.8,0.3,1.6,0.9,2.2c0.6,0.6,1.4,0.9,2.2,0.9h2.2c0.8,0,1.6-0.3,2.2-0.9
					c0.6-0.6,0.9-1.4,0.9-2.2V120.6z M486.1,120.6v2.2c0,0.1,0,0.1-0.1,0.2c-0.1,0.1-0.1,0.1-0.2,0.1h-2.2c-0.1,0-0.1,0-0.2-0.1
					c-0.1-0.1-0.1-0.1-0.1-0.2v-2.2c0-0.1,0-0.1,0.1-0.2c0.1-0.1,0.1-0.1,0.2-0.1h2.2c0.1,0,0.1,0,0.2,0.1
					C486.1,120.5,486.1,120.5,486.1,120.6z"/>
			</g>
			<g transform="matrix(1,0,0,1,8,2)">
				<path class="st5" d="M492,114.3c0-0.8-0.3-1.6-0.9-2.2c-0.6-0.6-1.4-0.9-2.2-0.9h-2.2c-0.8,0-1.6,0.3-2.2,0.9
					c-0.6,0.6-0.9,1.4-0.9,2.2v2.2c0,0.8,0.3,1.6,0.9,2.2c0.6,0.6,1.4,0.9,2.2,0.9h2.2c0.8,0,1.6-0.3,2.2-0.9
					c0.6-0.6,0.9-1.4,0.9-2.2V114.3z M489.2,114.3v2.2c0,0.1,0,0.1-0.1,0.2c-0.1,0.1-0.1,0.1-0.2,0.1h-2.2c-0.1,0-0.1,0-0.2-0.1
					c-0.1-0.1-0.1-0.1-0.1-0.2v-2.2c0-0.1,0-0.1,0.1-0.2c0.1-0.1,0.1-0.1,0.2-0.1h2.2c0.1,0,0.1,0,0.2,0.1
					C489.2,114.2,489.2,114.2,489.2,114.3z"/>
			</g>
			<g transform="matrix(1,0,0,1,8,10)">
				<path class="st5" d="M492,117.5c0-0.8-0.3-1.6-0.9-2.2c-0.6-0.6-1.4-0.9-2.2-0.9h-2.2c-0.8,0-1.6,0.3-2.2,0.9
					c-0.6,0.6-0.9,1.4-0.9,2.2v2.2c0,0.8,0.3,1.6,0.9,2.2c0.6,0.6,1.4,0.9,2.2,0.9h2.2c0.8,0,1.6-0.3,2.2-0.9
					c0.6-0.6,0.9-1.4,0.9-2.2V117.5z M489.2,117.5v2.2c0,0.1,0,0.1-0.1,0.2c-0.1,0.1-0.1,0.1-0.2,0.1h-2.2c-0.1,0-0.1,0-0.2-0.1
					c-0.1-0.1-0.1-0.1-0.1-0.2v-2.2c0-0.1,0-0.1,0.1-0.2c0.1-0.1,0.1-0.1,0.2-0.1h2.2c0.1,0,0.1,0,0.2,0.1
					C489.2,117.3,489.2,117.4,489.2,117.5z"/>
			</g>
			<g transform="matrix(1,0,0,1,8,18)">
				<path class="st5" d="M492,120.6c0-0.8-0.3-1.6-0.9-2.2c-0.6-0.6-1.4-0.9-2.2-0.9h-2.2c-0.8,0-1.6,0.3-2.2,0.9
					c-0.6,0.6-0.9,1.4-0.9,2.2v2.2c0,0.8,0.3,1.6,0.9,2.2c0.6,0.6,1.4,0.9,2.2,0.9h2.2c0.8,0,1.6-0.3,2.2-0.9
					c0.6-0.6,0.9-1.4,0.9-2.2V120.6z M489.2,120.6v2.2c0,0.1,0,0.1-0.1,0.2c-0.1,0.1-0.1,0.1-0.2,0.1h-2.2c-0.1,0-0.1,0-0.2-0.1
					c-0.1-0.1-0.1-0.1-0.1-0.2v-2.2c0-0.1,0-0.1,0.1-0.2c0.1-0.1,0.1-0.1,0.2-0.1h2.2c0.1,0,0.1,0,0.2,0.1
					C489.2,120.5,489.2,120.5,489.2,120.6z"/>
			</g>
			<g transform="matrix(1,0,0,1,16,2)">
				<path class="st9" d="M495.2,114.3c0-0.8-0.3-1.6-0.9-2.2c-0.6-0.6-1.4-0.9-2.2-0.9h-2.2c-0.8,0-1.6,0.3-2.2,0.9
					c-0.6,0.6-0.9,1.4-0.9,2.2v2.2c0,0.8,0.3,1.6,0.9,2.2c0.6,0.6,1.4,0.9,2.2,0.9h2.2c0.8,0,1.6-0.3,2.2-0.9
					c0.6-0.6,0.9-1.4,0.9-2.2V114.3z M492.4,114.3v2.2c0,0.1,0,0.1-0.1,0.2c-0.1,0.1-0.1,0.1-0.2,0.1h-2.2c-0.1,0-0.1,0-0.2-0.1
					c-0.1-0.1-0.1-0.1-0.1-0.2v-2.2c0-0.1,0-0.1,0.1-0.2c0.1-0.1,0.1-0.1,0.2-0.1h2.2c0.1,0,0.1,0,0.2,0.1
					C492.4,114.2,492.4,114.2,492.4,114.3z"/>
			</g>
			<g transform="matrix(1,0,0,1,16,10)">
				<path class="st9" d="M495.2,117.5c0-0.8-0.3-1.6-0.9-2.2c-0.6-0.6-1.4-0.9-2.2-0.9h-2.2c-0.8,0-1.6,0.3-2.2,0.9
					c-0.6,0.6-0.9,1.4-0.9,2.2v2.2c0,0.8,0.3,1.6,0.9,2.2c0.6,0.6,1.4,0.9,2.2,0.9h2.2c0.8,0,1.6-0.3,2.2-0.9
					c0.6-0.6,0.9-1.4,0.9-2.2V117.5z M492.4,117.5v2.2c0,0.1,0,0.1-0.1,0.2c-0.1,0.1-0.1,0.1-0.2,0.1h-2.2c-0.1,0-0.1,0-0.2-0.1
					c-0.1-0.1-0.1-0.1-0.1-0.2v-2.2c0-0.1,0-0.1,0.1-0.2c0.1-0.1,0.1-0.1,0.2-0.1h2.2c0.1,0,0.1,0,0.2,0.1
					C492.4,117.3,492.4,117.4,492.4,117.5z"/>
			</g>
			<g transform="matrix(1,0,0,1,16,18)">
				<path class="st9" d="M495.2,120.6c0-0.8-0.3-1.6-0.9-2.2c-0.6-0.6-1.4-0.9-2.2-0.9h-2.2c-0.8,0-1.6,0.3-2.2,0.9
					c-0.6,0.6-0.9,1.4-0.9,2.2v2.2c0,0.8,0.3,1.6,0.9,2.2c0.6,0.6,1.4,0.9,2.2,0.9h2.2c0.8,0,1.6-0.3,2.2-0.9
					c0.6-0.6,0.9-1.4,0.9-2.2V120.6z M492.4,120.6v2.2c0,0.1,0,0.1-0.1,0.2c-0.1,0.1-0.1,0.1-0.2,0.1h-2.2c-0.1,0-0.1,0-0.2-0.1
					c-0.1-0.1-0.1-0.1-0.1-0.2v-2.2c0-0.1,0-0.1,0.1-0.2c0.1-0.1,0.1-0.1,0.2-0.1h2.2c0.1,0,0.1,0,0.2,0.1
					C492.4,120.5,492.4,120.5,492.4,120.6z"/>
			</g>
			<g transform="matrix(1,0,0,1,24,2)">
				<path class="st9" d="M498.3,114.3c0-0.8-0.3-1.6-0.9-2.2c-0.6-0.6-1.4-0.9-2.2-0.9H493c-0.8,0-1.6,0.3-2.2,0.9
					c-0.6,0.6-0.9,1.4-0.9,2.2v2.2c0,0.8,0.3,1.6,0.9,2.2c0.6,0.6,1.4,0.9,2.2,0.9h2.2c0.8,0,1.6-0.3,2.2-0.9
					c0.6-0.6,0.9-1.4,0.9-2.2V114.3z M495.5,114.3v2.2c0,0.1,0,0.1-0.1,0.2c-0.1,0.1-0.1,0.1-0.2,0.1H493c-0.1,0-0.1,0-0.2-0.1
					c-0.1-0.1-0.1-0.1-0.1-0.2v-2.2c0-0.1,0-0.1,0.1-0.2c0.1-0.1,0.1-0.1,0.2-0.1h2.2c0.1,0,0.1,0,0.2,0.1
					C495.5,114.2,495.5,114.2,495.5,114.3z"/>
			</g>
			<g transform="matrix(1,0,0,1,24,10)">
				<path class="st9" d="M498.3,117.5c0-0.8-0.3-1.6-0.9-2.2c-0.6-0.6-1.4-0.9-2.2-0.9H493c-0.8,0-1.6,0.3-2.2,0.9
					c-0.6,0.6-0.9,1.4-0.9,2.2v2.2c0,0.8,0.3,1.6,0.9,2.2c0.6,0.6,1.4,0.9,2.2,0.9h2.2c0.8,0,1.6-0.3,2.2-0.9
					c0.6-0.6,0.9-1.4,0.9-2.2V117.5z M495.5,117.5v2.2c0,0.1,0,0.1-0.1,0.2c-0.1,0.1-0.1,0.1-0.2,0.1H493c-0.1,0-0.1,0-0.2-0.1
					c-0.1-0.1-0.1-0.1-0.1-0.2v-2.2c0-0.1,0-0.1,0.1-0.2c0.1-0.1,0.1-0.1,0.2-0.1h2.2c0.1,0,0.1,0,0.2,0.1
					C495.5,117.3,495.5,117.4,495.5,117.5z"/>
			</g>
			<g transform="matrix(1,0,0,1,32,2)">
				<path class="st9" d="M501.5,114.3c0-0.8-0.3-1.6-0.9-2.2c-0.6-0.6-1.4-0.9-2.2-0.9h-2.2c-0.8,0-1.6,0.3-2.2,0.9
					c-0.6,0.6-0.9,1.4-0.9,2.2v2.2c0,0.8,0.3,1.6,0.9,2.2c0.6,0.6,1.4,0.9,2.2,0.9h2.2c0.8,0,1.6-0.3,2.2-0.9
					c0.6-0.6,0.9-1.4,0.9-2.2V114.3z M498.7,114.3v2.2c0,0.1,0,0.1-0.1,0.2c-0.1,0.1-0.1,0.1-0.2,0.1h-2.2c-0.1,0-0.1,0-0.2-0.1
					c-0.1-0.1-0.1-0.1-0.1-0.2v-2.2c0-0.1,0-0.1,0.1-0.2c0.1-0.1,0.1-0.1,0.2-0.1h2.2c0.1,0,0.1,0,0.2,0.1
					C498.6,114.2,498.7,114.2,498.7,114.3z"/>
			</g>
			<g transform="matrix(1,0,0,1,32,10)">
				<path class="st9" d="M501.5,117.5c0-0.8-0.3-1.6-0.9-2.2c-0.6-0.6-1.4-0.9-2.2-0.9h-2.2c-0.8,0-1.6,0.3-2.2,0.9
					c-0.6,0.6-0.9,1.4-0.9,2.2v2.2c0,0.8,0.3,1.6,0.9,2.2c0.6,0.6,1.4,0.9,2.2,0.9h2.2c0.8,0,1.6-0.3,2.2-0.9
					c0.6-0.6,0.9-1.4,0.9-2.2V117.5z M498.7,117.5v2.2c0,0.1,0,0.1-0.1,0.2c-0.1,0.1-0.1,0.1-0.2,0.1h-2.2c-0.1,0-0.1,0-0.2-0.1
					c-0.1-0.1-0.1-0.1-0.1-0.2v-2.2c0-0.1,0-0.1,0.1-0.2c0.1-0.1,0.1-0.1,0.2-0.1h2.2c0.1,0,0.1,0,0.2,0.1
					C498.6,117.3,498.7,117.4,498.7,117.5z"/>
			</g>
		</g>
	</g>
</g>
</svg>
