<?xml version="1.0" encoding="utf-8"?>
<!-- Generator: Adobe Illustrator 28.0.0, SVG Export Plug-In . SVG Version: 6.00 Build 0)  -->
<svg version="1.1" id="Laag_1" xmlns="http://www.w3.org/2000/svg" xmlns:xlink="http://www.w3.org/1999/xlink" x="0px" y="0px"
	 viewBox="0 0 150 150" style="enable-background:new 0 0 150 150;" xml:space="preserve">
<style type="text/css">
	.Slagschaduw{fill:none;}
	.Buitenste_x0020_gloed_x0020_5_x0020_pt{fill:none;}
	.Blauw_x0020_neon{fill:none;stroke:#8AACDA;stroke-width:7;stroke-linecap:round;stroke-linejoin:round;}
	.Hooglicht_x002C__x0020_chroom{fill:url(#SVGID_1_);stroke:#FFFFFF;stroke-width:0.3629;stroke-miterlimit:1;}
	.Jive_AS{fill:#FFDD00;}
	.Alyssa_AS{fill:#A6D0E4;}
	.st0{fill:#063B59;}
	.st1{fill:#FFFFFF;}
</style>
<linearGradient id="SVGID_1_" gradientUnits="userSpaceOnUse" x1="0" y1="0" x2="6.123234e-17" y2="-1">
	<stop  offset="0" style="stop-color:#656565"/>
	<stop  offset="0.618" style="stop-color:#1B1B1B"/>
	<stop  offset="0.6292" style="stop-color:#545454"/>
	<stop  offset="0.9831" style="stop-color:#3E3E3E"/>
</linearGradient>
<g>
	<path class="st0" d="M150,77.3c0-6.9-13.8-16.3-21.8-21.2c-8.1-27-33.1-46.6-62.7-46.6C29.3,9.5,0,38.8,0,75
		c0,36.2,29.3,65.5,65.5,65.5c27.3,0,50.6-16.7,60.5-40.4C133.3,95.7,150,84.9,150,77.3z"/>
	<g>
		<path class="st1" d="M89.1,39.5H41.8c-1.3,0-2.4,1.1-2.4,2.4v66.3c0,1.3,1.1,2.4,2.4,2.4h47.4c1.3,0,2.4-1.1,2.4-2.4V41.9
			C91.5,40.5,90.5,39.5,89.1,39.5z M58.4,58.4h4.7v-4.7c0-1.3,1.1-2.4,2.4-2.4c1.3,0,2.4,1.1,2.4,2.4v4.7h4.7c1.3,0,2.4,1.1,2.4,2.4
			c0,1.3-1.1,2.4-2.4,2.4h-4.7v4.7c0,1.3-1.1,2.4-2.4,2.4c-1.3,0-2.4-1.1-2.4-2.4v-4.7h-4.7c-1.3,0-2.4-1.1-2.4-2.4
			C56,59.5,57.1,58.4,58.4,58.4z M65.5,101H51.3c-1.3,0-2.4-1.1-2.4-2.4s1.1-2.4,2.4-2.4h14.2c1.3,0,2.4,1.1,2.4,2.4
			S66.8,101,65.5,101z M79.7,91.6H51.3c-1.3,0-2.4-1.1-2.4-2.4s1.1-2.4,2.4-2.4h28.4c1.3,0,2.4,1.1,2.4,2.4S81,91.6,79.7,91.6z
			 M79.7,82.1H51.3c-1.3,0-2.4-1.1-2.4-2.4s1.1-2.4,2.4-2.4h28.4c1.3,0,2.4,1.1,2.4,2.4S81,82.1,79.7,82.1z"/>
	</g>
</g>
</svg>
