<?xml version="1.0" encoding="utf-8"?>
<!-- Generator: Adobe Illustrator 28.0.0, SVG Export Plug-In . SVG Version: 6.00 Build 0)  -->
<svg version="1.1" id="Laag_1" xmlns="http://www.w3.org/2000/svg" xmlns:xlink="http://www.w3.org/1999/xlink" x="0px" y="0px"
	 viewBox="0 0 60 60" style="enable-background:new 0 0 60 60;" xml:space="preserve">
<style type="text/css">
	.Slagschaduw{fill:none;}
	.Buitenste_x0020_gloed_x0020_5_x0020_pt{fill:none;}
	.Blauw_x0020_neon{fill:none;stroke:#8AACDA;stroke-width:7;stroke-linecap:round;stroke-linejoin:round;}
	.Hooglicht_x002C__x0020_chroom{fill:url(#SVGID_1_);stroke:#FFFFFF;stroke-width:0.3629;stroke-miterlimit:1;}
	.Jive_AS{fill:#FFDD00;}
	.Alyssa_AS{fill:#A6D0E4;}
	.st0{fill:#666666;}
	.st1{fill:#063B59;}
</style>
<linearGradient id="SVGID_1_" gradientUnits="userSpaceOnUse" x1="-45" y1="-45" x2="-45" y2="-46">
	<stop  offset="0" style="stop-color:#656565"/>
	<stop  offset="0.618" style="stop-color:#1B1B1B"/>
	<stop  offset="0.6292" style="stop-color:#545454"/>
	<stop  offset="0.9831" style="stop-color:#3E3E3E"/>
</linearGradient>
<g>
	<path class="st0" d="M18,14.1c-0.6,0.4-0.7,1.2-0.3,1.8c0.4,0.5,1.2,0.7,1.8,0.3c3.5-2.6,1.8-6.3,0.2-9.6c-1.3-2.7,0.4-4,0.7-4.2
		c0.6-0.4,0.8-1.1,0.4-1.8c-0.4-0.6-1.1-0.8-1.8-0.4c-1.4,0.9-3.6,3.5-1.7,7.6C19.5,12,19.4,13,18,14.1z"/>
	<path class="st0" d="M25.2,14.1c-0.6,0.4-0.7,1.2-0.3,1.8c0.4,0.5,1.2,0.7,1.8,0.3c3.5-2.6,1.8-6.3,0.2-9.6c-1.3-2.7,0.4-4,0.7-4.2
		c0.6-0.4,0.8-1.1,0.4-1.8C27.8,0,27-0.2,26.4,0.2c-1.4,0.9-3.6,3.5-1.7,7.6C26.6,12,26.5,13,25.2,14.1z"/>
	<path class="st0" d="M32.4,14.1c-0.6,0.4-0.7,1.2-0.3,1.8c0.4,0.5,1.2,0.7,1.8,0.3c3.5-2.6,1.8-6.3,0.2-9.6c-1.3-2.7,0.4-4,0.7-4.2
		c0.6-0.4,0.8-1.1,0.4-1.8s-1.1-0.8-1.8-0.4c-1.4,0.9-3.6,3.5-1.7,7.6C33.8,12,33.8,13,32.4,14.1z"/>
	<path class="st1" d="M46,27.5h-1.1v-6.8c0-0.7-0.6-1.3-1.3-1.3l0,0H10c-0.7,0-1.3,0.6-1.3,1.3l0,0v28.9c0,5.7,4.7,10.3,10.4,10.3
		h15.4c5.7,0,10.3-4.6,10.4-10.3v-3.4H46c5.2,0,9.3-4.1,9.3-9.3C55.3,31.8,51.2,27.6,46,27.5z M38.4,38.4c0,3.4-2.7,6.2-6.1,6.3
		c0.1,1.1,0.4,2.2,0.9,3.3l0.9,1.9l-1.8-1c-2.1-1.1-4.3-2.1-5.5-4.2h-5.1c-3.5,0-6.4-2.9-6.4-6.4v-3.8c0-3.5,2.9-6.4,6.4-6.4H32
		c3.5,0,6.4,2.9,6.4,6.4V38.4z M46,43.6h-1.1V30.1H46c3.7,0.1,6.7,3.1,6.8,6.8C52.8,40.6,49.8,43.5,46,43.6z"/>
</g>
</svg>
