<?xml version="1.0" encoding="utf-8"?>
<!-- Generator: Adobe Illustrator 28.0.0, SVG Export Plug-In . SVG Version: 6.00 Build 0)  -->
<svg version="1.1" id="Laag_1" xmlns="http://www.w3.org/2000/svg" xmlns:xlink="http://www.w3.org/1999/xlink" x="0px" y="0px"
	 viewBox="0 0 60 60" style="enable-background:new 0 0 60 60;" xml:space="preserve">
<style type="text/css">
	.Slagschaduw{fill:none;}
	.Buitenste_x0020_gloed_x0020_5_x0020_pt{fill:none;}
	.Blauw_x0020_neon{fill:none;stroke:#8AACDA;stroke-width:7;stroke-linecap:round;stroke-linejoin:round;}
	.Hooglicht_x002C__x0020_chroom{fill:url(#SVGID_1_);stroke:#FFFFFF;stroke-width:0.3629;stroke-miterlimit:1;}
	.Jive_AS{fill:#FFDD00;}
	.Alyssa_AS{fill:#A6D0E4;}
	.st0{fill-rule:evenodd;clip-rule:evenodd;fill:#063B59;}
	.st1{fill-rule:evenodd;clip-rule:evenodd;fill:#666666;}
</style>
<linearGradient id="SVGID_1_" gradientUnits="userSpaceOnUse" x1="-45" y1="-45" x2="-45" y2="-46">
	<stop  offset="0" style="stop-color:#656565"/>
	<stop  offset="0.618" style="stop-color:#1B1B1B"/>
	<stop  offset="0.6292" style="stop-color:#545454"/>
	<stop  offset="0.9831" style="stop-color:#3E3E3E"/>
</linearGradient>
<g transform="matrix(1,0,0,1,-432,-48)">
	<g>
		<path class="st0" d="M476.4,53.3h-7.8v-3.9c0-0.7-0.6-1.3-1.3-1.3c-0.7,0-1.3,0.6-1.3,1.3v3.9h-7.9v-3.9c0-0.7-0.6-1.3-1.3-1.3
			c-0.7,0-1.3,0.6-1.3,1.3v3.9h-7.9v-3.9c0-0.7-0.6-1.3-1.3-1.3s-1.3,0.6-1.3,1.3v3.9h-6.6c-1.7,0-3.4,0.7-4.6,1.9
			c-1.2,1.2-1.9,2.9-1.9,4.6c0,10,0,31.7,0,41.7c0,1.7,0.7,3.4,1.9,4.6c1.2,1.2,2.9,1.9,4.6,1.9h35.4c1,0,2.1-0.4,2.8-1.1l14.1-14.1
			c0.7-0.7,1.1-1.7,1.1-2.8c0-2.6,0-30.2,0-30.2c0-1.7-0.7-3.4-1.9-4.6c-1.2-1.2-2.9-1.9-4.6-1.9h-6.6v-3.9c0-0.7-0.6-1.3-1.3-1.3
			c-0.7,0-1.3,0.6-1.3,1.3L476.4,53.3L476.4,53.3z M445.2,56h-6.6c-1,0-2.1,0.4-2.8,1.1c-0.7,0.7-1.1,1.7-1.1,2.8
			c0,10,0,31.7,0,41.7c0,1,0.4,2.1,1.1,2.8c0.7,0.7,1.7,1.1,2.8,1.1h33.9c0.7,0,1.3-0.6,1.3-1.3v-7.9c0-1.7,0.7-3.4,1.9-4.6
			c1.2-1.2,2.9-1.9,4.6-1.9h7.9c0.4,0,0.7-0.1,0.9-0.4c0.3-0.3,0.4-0.6,0.4-0.9c0-7.5,0-28.6,0-28.6c0-1-0.4-2.1-1.1-2.8
			c-0.7-0.7-1.7-1.1-2.8-1.1h-6.6V60c0,0.7-0.6,1.3-1.3,1.3c-0.7,0-1.3-0.6-1.3-1.3V56h-7.7V60c0,0.7-0.6,1.3-1.3,1.3
			c-0.7,0-1.3-0.6-1.3-1.3V56h-7.9V60c0,0.7-0.6,1.3-1.3,1.3c-0.7,0-1.3-0.6-1.3-1.3V56h-7.9V60c0,0.7-0.6,1.3-1.3,1.3
			s-1.3-0.6-1.3-1.3L445.2,56L445.2,56z M487.6,92.5h-7.3c-1,0-2.1,0.4-2.8,1.1c-0.7,0.7-1.1,1.7-1.1,2.8v7.3L487.6,92.5z"/>
		<g transform="matrix(1,0,0,1,0,2)">
			<path class="st1" d="M445.2,69.9c0-0.7-0.3-1.5-0.8-2.1c-0.6-0.6-1.3-0.8-2.1-0.8h-2.1c-0.7,0-1.5,0.3-2.1,0.8
				c-0.6,0.6-0.8,1.3-0.8,2.1v2.1c0,0.7,0.3,1.5,0.8,2.1c0.6,0.6,1.3,0.8,2.1,0.8h2.1c0.7,0,1.5-0.3,2.1-0.8
				c0.6-0.6,0.8-1.3,0.8-2.1V69.9z M442.5,69.9v2.1c0,0.1,0,0.1-0.1,0.2c-0.1,0.1-0.1,0.1-0.2,0.1h-2.1c-0.1,0-0.1,0-0.2-0.1
				c-0.1-0.1-0.1-0.1-0.1-0.2v-2.1c0-0.1,0-0.1,0.1-0.2c0.1-0.1,0.1-0.1,0.2-0.1h2.1c0.1,0,0.1,0,0.2,0.1
				C442.5,69.8,442.5,69.8,442.5,69.9z"/>
		</g>
		<g transform="matrix(1,0,0,1,0,10)">
			<path class="st1" d="M445.2,72.4c0-0.7-0.3-1.5-0.8-2.1c-0.6-0.6-1.3-0.8-2.1-0.8h-2.1c-0.7,0-1.5,0.3-2.1,0.8
				c-0.6,0.6-0.8,1.3-0.8,2.1v2.1c0,0.7,0.3,1.5,0.8,2.1c0.6,0.6,1.3,0.8,2.1,0.8h2.1c0.7,0,1.5-0.3,2.1-0.8
				c0.6-0.6,0.8-1.3,0.8-2.1V72.4z M442.5,72.4v2.1c0,0.1,0,0.1-0.1,0.2c-0.1,0.1-0.1,0.1-0.2,0.1h-2.1c-0.1,0-0.1,0-0.2-0.1
				c-0.1-0.1-0.1-0.1-0.1-0.2v-2.1c0-0.1,0-0.1,0.1-0.2c0.1-0.1,0.1-0.1,0.2-0.1h2.1c0.1,0,0.1,0,0.2,0.1
				C442.5,72.2,442.5,72.3,442.5,72.4z"/>
		</g>
		<g transform="matrix(1,0,0,1,0,18)">
			<path class="st1" d="M445.2,74.7c0-0.7-0.3-1.5-0.8-2.1c-0.6-0.6-1.3-0.8-2.1-0.8h-2.1c-0.7,0-1.5,0.3-2.1,0.8
				c-0.6,0.6-0.8,1.3-0.8,2.1v2.1c0,0.7,0.3,1.5,0.8,2.1c0.6,0.6,1.3,0.8,2.1,0.8h2.1c0.7,0,1.5-0.3,2.1-0.8
				c0.6-0.6,0.8-1.3,0.8-2.1V74.7z M442.5,74.7v2.1c0,0.1,0,0.1-0.1,0.2c-0.1,0.1-0.1,0.1-0.2,0.1h-2.1c-0.1,0-0.1,0-0.2-0.1
				c-0.1-0.1-0.1-0.1-0.1-0.2v-2.1c0-0.1,0-0.1,0.1-0.2c0.1-0.1,0.1-0.1,0.2-0.1h2.1c0.1,0,0.1,0,0.2,0.1
				C442.5,74.6,442.5,74.6,442.5,74.7z"/>
		</g>
		<g transform="matrix(1,0,0,1,8,2)">
			<path class="st0" d="M447.5,69.9c0-0.7-0.3-1.5-0.8-2.1c-0.6-0.6-1.3-0.8-2.1-0.8h-2.1c-0.7,0-1.5,0.3-2.1,0.8
				c-0.6,0.6-0.8,1.3-0.8,2.1v2.1c0,0.7,0.3,1.5,0.8,2.1c0.6,0.6,1.3,0.8,2.1,0.8h2.1c0.7,0,1.5-0.3,2.1-0.8
				c0.6-0.6,0.8-1.3,0.8-2.1V69.9z M444.9,69.9v2.1c0,0.1,0,0.1-0.1,0.2c-0.1,0.1-0.1,0.1-0.2,0.1h-2.1c-0.1,0-0.1,0-0.2-0.1
				c-0.1-0.1-0.1-0.1-0.1-0.2v-2.1c0-0.1,0-0.1,0.1-0.2c0.1-0.1,0.1-0.1,0.2-0.1h2.1c0.1,0,0.1,0,0.2,0.1
				C444.9,69.8,444.9,69.8,444.9,69.9z"/>
		</g>
		<g transform="matrix(1,0,0,1,8,10)">
			<path class="st0" d="M447.5,72.4c0-0.7-0.3-1.5-0.8-2.1c-0.6-0.6-1.3-0.8-2.1-0.8h-2.1c-0.7,0-1.5,0.3-2.1,0.8
				c-0.6,0.6-0.8,1.3-0.8,2.1v2.1c0,0.7,0.3,1.5,0.8,2.1c0.6,0.6,1.3,0.8,2.1,0.8h2.1c0.7,0,1.5-0.3,2.1-0.8
				c0.6-0.6,0.8-1.3,0.8-2.1V72.4z M444.9,72.4v2.1c0,0.1,0,0.1-0.1,0.2c-0.1,0.1-0.1,0.1-0.2,0.1h-2.1c-0.1,0-0.1,0-0.2-0.1
				c-0.1-0.1-0.1-0.1-0.1-0.2v-2.1c0-0.1,0-0.1,0.1-0.2c0.1-0.1,0.1-0.1,0.2-0.1h2.1c0.1,0,0.1,0,0.2,0.1
				C444.9,72.2,444.9,72.3,444.9,72.4z"/>
		</g>
		<g transform="matrix(1,0,0,1,8,18)">
			<path class="st0" d="M447.5,74.7c0-0.7-0.3-1.5-0.8-2.1c-0.6-0.6-1.3-0.8-2.1-0.8h-2.1c-0.7,0-1.5,0.3-2.1,0.8
				c-0.6,0.6-0.8,1.3-0.8,2.1v2.1c0,0.7,0.3,1.5,0.8,2.1c0.6,0.6,1.3,0.8,2.1,0.8h2.1c0.7,0,1.5-0.3,2.1-0.8
				c0.6-0.6,0.8-1.3,0.8-2.1V74.7z M444.9,74.7v2.1c0,0.1,0,0.1-0.1,0.2c-0.1,0.1-0.1,0.1-0.2,0.1h-2.1c-0.1,0-0.1,0-0.2-0.1
				c-0.1-0.1-0.1-0.1-0.1-0.2v-2.1c0-0.1,0-0.1,0.1-0.2c0.1-0.1,0.1-0.1,0.2-0.1h2.1c0.1,0,0.1,0,0.2,0.1
				C444.9,74.6,444.9,74.6,444.9,74.7z"/>
		</g>
		<g transform="matrix(1,0,0,1,16,2)">
			<path class="st1" d="M450,69.9c0-0.7-0.3-1.5-0.8-2.1c-0.6-0.6-1.3-0.8-2.1-0.8h-2.1c-0.7,0-1.5,0.3-2.1,0.8
				c-0.6,0.6-0.8,1.3-0.8,2.1v2.1c0,0.7,0.3,1.5,0.8,2.1s1.3,0.8,2.1,0.8h2.1c0.7,0,1.5-0.3,2.1-0.8c0.6-0.6,0.8-1.3,0.8-2.1V69.9z
				 M447.4,69.9v2.1c0,0.1,0,0.1-0.1,0.2c-0.1,0.1-0.1,0.1-0.2,0.1h-2.1c-0.1,0-0.1,0-0.2-0.1c-0.1-0.1-0.1-0.1-0.1-0.2v-2.1
				c0-0.1,0-0.1,0.1-0.2c0.1-0.1,0.1-0.1,0.2-0.1h2.1c0.1,0,0.1,0,0.2,0.1C447.4,69.8,447.4,69.8,447.4,69.9z"/>
		</g>
		<g transform="matrix(1,0,0,1,16,10)">
			<path class="st1" d="M450,72.4c0-0.7-0.3-1.5-0.8-2.1c-0.6-0.6-1.3-0.8-2.1-0.8h-2.1c-0.7,0-1.5,0.3-2.1,0.8s-0.8,1.3-0.8,2.1
				v2.1c0,0.7,0.3,1.5,0.8,2.1c0.6,0.6,1.3,0.8,2.1,0.8h2.1c0.7,0,1.5-0.3,2.1-0.8c0.6-0.6,0.8-1.3,0.8-2.1V72.4z M447.4,72.4v2.1
				c0,0.1,0,0.1-0.1,0.2c-0.1,0.1-0.1,0.1-0.2,0.1h-2.1c-0.1,0-0.1,0-0.2-0.1c-0.1-0.1-0.1-0.1-0.1-0.2v-2.1c0-0.1,0-0.1,0.1-0.2
				c0.1-0.1,0.1-0.1,0.2-0.1h2.1c0.1,0,0.1,0,0.2,0.1C447.4,72.2,447.4,72.3,447.4,72.4z"/>
		</g>
		<g transform="matrix(1,0,0,1,16,18)">
			<path class="st1" d="M450,74.7c0-0.7-0.3-1.5-0.8-2.1c-0.6-0.6-1.3-0.8-2.1-0.8h-2.1c-0.7,0-1.5,0.3-2.1,0.8
				c-0.6,0.6-0.8,1.3-0.8,2.1v2.1c0,0.7,0.3,1.5,0.8,2.1s1.3,0.8,2.1,0.8h2.1c0.7,0,1.5-0.3,2.1-0.8c0.6-0.6,0.8-1.3,0.8-2.1V74.7z
				 M447.4,74.7v2.1c0,0.1,0,0.1-0.1,0.2c-0.1,0.1-0.1,0.1-0.2,0.1h-2.1c-0.1,0-0.1,0-0.2-0.1c-0.1-0.1-0.1-0.1-0.1-0.2v-2.1
				c0-0.1,0-0.1,0.1-0.2c0.1-0.1,0.1-0.1,0.2-0.1h2.1c0.1,0,0.1,0,0.2,0.1C447.4,74.6,447.4,74.6,447.4,74.7z"/>
		</g>
		<g transform="matrix(1,0,0,1,24,2)">
			<path class="st1" d="M452.4,69.9c0-0.7-0.3-1.5-0.8-2.1c-0.6-0.6-1.3-0.8-2.1-0.8h-2.1c-0.7,0-1.5,0.3-2.1,0.8
				c-0.6,0.6-0.8,1.3-0.8,2.1v2.1c0,0.7,0.3,1.5,0.8,2.1c0.6,0.6,1.3,0.8,2.1,0.8h2.1c0.7,0,1.5-0.3,2.1-0.8s0.8-1.3,0.8-2.1
				L452.4,69.9L452.4,69.9z M449.8,69.9v2.1c0,0.1,0,0.1-0.1,0.2c-0.1,0.1-0.1,0.1-0.2,0.1h-2.1c-0.1,0-0.1,0-0.2-0.1
				c-0.1-0.1-0.1-0.1-0.1-0.2v-2.1c0-0.1,0-0.1,0.1-0.2c0.1-0.1,0.1-0.1,0.2-0.1h2.1c0.1,0,0.1,0,0.2,0.1
				C449.8,69.8,449.8,69.8,449.8,69.9z"/>
		</g>
		<g transform="matrix(1,0,0,1,24,10)">
			<path class="st1" d="M452.4,72.4c0-0.7-0.3-1.5-0.8-2.1c-0.6-0.6-1.3-0.8-2.1-0.8h-2.1c-0.7,0-1.5,0.3-2.1,0.8
				c-0.6,0.6-0.8,1.3-0.8,2.1v2.1c0,0.7,0.3,1.5,0.8,2.1c0.6,0.6,1.3,0.8,2.1,0.8h2.1c0.7,0,1.5-0.3,2.1-0.8
				c0.6-0.6,0.8-1.3,0.8-2.1L452.4,72.4L452.4,72.4z M449.8,72.4v2.1c0,0.1,0,0.1-0.1,0.2c-0.1,0.1-0.1,0.1-0.2,0.1h-2.1
				c-0.1,0-0.1,0-0.2-0.1c-0.1-0.1-0.1-0.1-0.1-0.2v-2.1c0-0.1,0-0.1,0.1-0.2c0.1-0.1,0.1-0.1,0.2-0.1h2.1c0.1,0,0.1,0,0.2,0.1
				C449.8,72.2,449.8,72.3,449.8,72.4z"/>
		</g>
		<g transform="matrix(1,0,0,1,32,2)">
			<path class="st1" d="M454.9,69.9c0-0.7-0.3-1.5-0.8-2.1c-0.6-0.6-1.3-0.8-2.1-0.8h-2.1c-0.7,0-1.5,0.3-2.1,0.8
				c-0.6,0.6-0.8,1.3-0.8,2.1v2.1c0,0.7,0.3,1.5,0.8,2.1c0.6,0.6,1.3,0.8,2.1,0.8h2.1c0.7,0,1.5-0.3,2.1-0.8
				c0.6-0.6,0.8-1.3,0.8-2.1V69.9z M452.3,69.9v2.1c0,0.1,0,0.1-0.1,0.2c-0.1,0.1-0.1,0.1-0.2,0.1h-2.1c-0.1,0-0.1,0-0.2-0.1
				c-0.1-0.1-0.1-0.1-0.1-0.2v-2.1c0-0.1,0-0.1,0.1-0.2s0.1-0.1,0.2-0.1h2.1c0.1,0,0.1,0,0.2,0.1C452.2,69.8,452.3,69.8,452.3,69.9z
				"/>
		</g>
		<g transform="matrix(1,0,0,1,32,10)">
			<path class="st1" d="M454.9,72.4c0-0.7-0.3-1.5-0.8-2.1c-0.6-0.6-1.3-0.8-2.1-0.8h-2.1c-0.7,0-1.5,0.3-2.1,0.8
				c-0.6,0.6-0.8,1.3-0.8,2.1v2.1c0,0.7,0.3,1.5,0.8,2.1c0.6,0.6,1.3,0.8,2.1,0.8h2.1c0.7,0,1.5-0.3,2.1-0.8
				c0.6-0.6,0.8-1.3,0.8-2.1V72.4z M452.3,72.4v2.1c0,0.1,0,0.1-0.1,0.2c-0.1,0.1-0.1,0.1-0.2,0.1h-2.1c-0.1,0-0.1,0-0.2-0.1
				c-0.1-0.1-0.1-0.1-0.1-0.2v-2.1c0-0.1,0-0.1,0.1-0.2c0.1-0.1,0.1-0.1,0.2-0.1h2.1c0.1,0,0.1,0,0.2,0.1
				C452.2,72.2,452.3,72.3,452.3,72.4z"/>
		</g>
	</g>
</g>
</svg>
